STARTFONT 2.3
FONT -FontForge-Indie Flower-Book-R-Normal--24-240-72-72-P-111-ISO10646-1
SIZE 24 72 72  2
FONTBOUNDINGBOX 29 36 -3 -12
COMMENT "Generated by fontforge, http://fontforge.sourceforge.net"
COMMENT "Copyright (c) 2010, Kimberly Geswein (kimberlygeswein.com)"
STARTPROPERTIES 40
FOUNDRY "FontForge"
FAMILY_NAME "Indie Flower"
WEIGHT_NAME "Book"
SLANT "R"
SETWIDTH_NAME "Normal"
ADD_STYLE_NAME ""
PIXEL_SIZE 24
POINT_SIZE 240
RESOLUTION_X 72
RESOLUTION_Y 72
SPACING "P"
AVERAGE_WIDTH 111
CHARSET_REGISTRY "ISO10646"
CHARSET_ENCODING "1"
FONTNAME_REGISTRY ""
CHARSET_COLLECTIONS "ISO8859-2 ISO8859-9 ISO8859-4 ISO10646-1"
BITS_PER_PIXEL 2
FONT_NAME "IndieFlower"
FACE_NAME "Indie Flower"
COPYRIGHT "Copyright (c) 2010, Kimberly Geswein (kimberlygeswein.com)"
FONT_VERSION "1.001 2010"
FONT_ASCENT 19
FONT_DESCENT 5
UNDERLINE_POSITION -2
UNDERLINE_THICKNESS 2
X_HEIGHT 8
CAP_HEIGHT 12
RAW_ASCENT 799
RAW_DESCENT 200
NORM_SPACE 9
RELATIVE_WEIGHT 40
RELATIVE_SETWIDTH 50
SUPERSCRIPT_X 0
SUPERSCRIPT_Y 11
SUPERSCRIPT_SIZE 15
SUBSCRIPT_X 0
SUBSCRIPT_Y 3
SUBSCRIPT_SIZE 15
AVG_LOWERCASE_WIDTH 107
AVG_UPPERCASE_WIDTH 130
ENDPROPERTIES
CHARS 356
STARTCHAR space
ENCODING 32
SWIDTH 375 0
DWIDTH 9 0
BBX 1 1 0 0
BITMAP
00
ENDCHAR
STARTCHAR exclam
ENCODING 33
SWIDTH 149 0
DWIDTH 4 0
BBX 3 20 0 0
BITMAP
20
30
30
30
30
30
30
30
34
34
34
34
34
20
00
00
00
14
BC
78
ENDCHAR
STARTCHAR quotedbl
ENCODING 34
SWIDTH 234 0
DWIDTH 6 0
BBX 5 7 0 12
BITMAP
4240
9280
A280
72C0
71C0
35C0
15C0
ENDCHAR
STARTCHAR numbersign
ENCODING 35
SWIDTH 768 0
DWIDTH 18 0
BBX 18 12 0 0
BITMAP
0001050000
00024A0000
0002460000
00029BAA40
016FFF9680
6FA6C34000
A402C7AFD0
0017FFEAA0
0BFAD38000
0500D28000
0000828000
0000014000
ENDCHAR
STARTCHAR dollar
ENCODING 36
SWIDTH 581 0
DWIDTH 14 0
BBX 14 22 0 0
BITMAP
00024400
00035800
00032800
0007B800
002FFD00
00EF2800
01C62400
01CA2000
007E3000
001E7000
000FF400
000EFD00
000DD740
000DC1C0
5009C0D0
B41980E0
2D2A80D0
06BA81C0
007F8780
002FFD00
002A9000
00164000
ENDCHAR
STARTCHAR percent
ENCODING 37
SWIDTH 636 0
DWIDTH 15 0
BBX 15 15 0 0
BITMAP
00000040
00000280
1F800600
79A01C00
A0343400
A0349000
75A18000
1F834000
000A07E0
001D1D74
00383428
00747038
00E06070
01C07AD0
02401A40
ENDCHAR
STARTCHAR ampersand
ENCODING 38
SWIDTH 457 0
DWIDTH 11 0
BBX 11 17 0 0
BITMAP
009000
01F000
01F400
01F400
02F000
02F000
02D000
02C1A4
0382E4
0BC340
0DA700
283E00
342D00
702D00
A0B700
B6C180
3E4040
ENDCHAR
STARTCHAR quotesingle
ENCODING 39
SWIDTH 102 0
DWIDTH 2 0
BBX 2 7 0 11
BITMAP
40
A0
A0
70
70
30
10
ENDCHAR
STARTCHAR parenleft
ENCODING 40
SWIDTH 421 0
DWIDTH 10 0
BBX 10 15 0 -1
BITMAP
0006D0
002EA0
00A000
028000
060000
0D0000
280000
340000
700000
B00000
700000
700000
280000
1F9400
02F800
ENDCHAR
STARTCHAR parenright
ENCODING 41
SWIDTH 290 0
DWIDTH 7 0
BBX 7 16 0 -2
BITMAP
2E00
0780
02D0
00A0
0074
0034
0028
0034
0030
00A0
01D0
0380
0F00
3D00
B400
4000
ENDCHAR
STARTCHAR asterisk
ENCODING 42
SWIDTH 412 0
DWIDTH 10 0
BBX 9 9 0 6
BITMAP
000040
244780
1EEE00
07FE40
2BFE00
5FBD00
0D3E00
182F40
001900
ENDCHAR
STARTCHAR plus
ENCODING 43
SWIDTH 459 0
DWIDTH 11 0
BBX 11 10 0 0
BITMAP
00C000
00D000
00A000
00B400
1AFFF4
BABA90
007400
003400
003400
003400
ENDCHAR
STARTCHAR comma
ENCODING 44
SWIDTH 130 0
DWIDTH 3 0
BBX 3 9 0 -5
BITMAP
10
70
34
34
70
70
A0
90
40
ENDCHAR
STARTCHAR hyphen
ENCODING 45
SWIDTH 375 0
DWIDTH 9 0
BBX 8 2 0 6
BITMAP
16A9
7FAB
ENDCHAR
STARTCHAR period
ENCODING 46
SWIDTH 204 0
DWIDTH 5 0
BBX 4 5 1 0
BITMAP
10
78
FD
BC
74
ENDCHAR
STARTCHAR slash
ENCODING 47
SWIDTH 309 0
DWIDTH 7 0
BBX 7 18 0 0
BITMAP
0008
001C
0018
0024
0034
0070
00A0
00D0
02C0
0380
0740
0B00
0E00
1C00
2800
7400
B000
9000
ENDCHAR
STARTCHAR zero
ENCODING 48
SWIDTH 430 0
DWIDTH 10 0
BBX 10 10 0 0
BITMAP
01F800
0BAF00
280280
7001D0
6000A0
6000A0
7000D0
2802C0
0E5B40
02FD00
ENDCHAR
STARTCHAR one
ENCODING 49
SWIDTH 318 0
DWIDTH 8 0
BBX 7 14 0 0
BITMAP
000C
001C
001C
003C
00B8
02F8
0AB4
2C74
B474
00B0
00B0
00A0
00A0
0090
ENDCHAR
STARTCHAR two
ENCODING 50
SWIDTH 497 0
DWIDTH 12 0
BBX 11 13 0 0
BITMAP
001F80
0039E0
003070
001034
000034
000034
000074
0000B0
0000E0
650180
BFAB40
7FFFE4
0655BC
ENDCHAR
STARTCHAR three
ENCODING 51
SWIDTH 430 0
DWIDTH 10 0
BBX 10 13 0 0
BITMAP
1AA400
3AAE00
100300
000700
016D00
1FF400
06BD00
000B80
0001D0
7000A0
3D00A0
0B96D0
01BE40
ENDCHAR
STARTCHAR four
ENCODING 52
SWIDTH 412 0
DWIDTH 10 0
BBX 10 15 0 0
BITMAP
040000
2C0000
380000
740000
700050
A000D0
A002D0
6007C0
341FC0
2EBF80
0BE680
0001C0
0001C0
0001D0
0001C0
ENDCHAR
STARTCHAR five
ENCODING 53
SWIDTH 571 0
DWIDTH 14 0
BBX 13 16 0 0
BITMAP
001AAA40
007AAA80
00700000
00A00000
01D00000
02D00000
03FE4000
005AE000
00007800
00001D00
00000A00
50000A00
90000E00
64002D00
2FAAF800
06FF9000
ENDCHAR
STARTCHAR six
ENCODING 54
SWIDTH 440 0
DWIDTH 11 0
BBX 10 15 0 0
BITMAP
000140
001FE0
00B450
02C000
070000
0D0000
280000
3FFE00
7906C0
A000E0
6000B0
7000B0
3801E0
2FAB80
07F900
ENDCHAR
STARTCHAR seven
ENCODING 55
SWIDTH 412 0
DWIDTH 10 0
BBX 10 13 0 0
BITMAP
6AA800
1AAD00
000D00
000C00
001C00
001C00
0BFF90
057990
003800
003400
007000
00B000
00A000
ENDCHAR
STARTCHAR eight
ENCODING 56
SWIDTH 375 0
DWIDTH 9 0
BBX 9 14 0 0
BITMAP
069000
1FB800
742C00
A02800
707000
2ED000
0BC000
0EA000
2C2800
380A00
380340
2C0240
0B4700
01FD00
ENDCHAR
STARTCHAR nine
ENCODING 57
SWIDTH 300 0
DWIDTH 7 0
BBX 7 14 0 0
BITMAP
1B90
3974
A02C
A03C
A078
7478
1FF4
0074
0034
0034
0034
0034
0034
0034
ENDCHAR
STARTCHAR colon
ENCODING 58
SWIDTH 84 0
DWIDTH 2 0
BBX 2 6 0 2
BITMAP
A0
50
00
00
00
50
ENDCHAR
STARTCHAR semicolon
ENCODING 59
SWIDTH 128 0
DWIDTH 3 0
BBX 4 15 -1 -5
BITMAP
04
2C
18
00
00
00
00
09
09
0D
1D
2C
78
70
10
ENDCHAR
STARTCHAR less
ENCODING 60
SWIDTH 487 0
DWIDTH 12 0
BBX 11 10 0 0
BITMAP
000018
0001E4
000B80
007D00
01E000
0B4000
380000
BE9400
1AFFD0
0005B0
ENDCHAR
STARTCHAR equal
ENCODING 61
SWIDTH 524 0
DWIDTH 13 0
BBX 12 7 0 3
BITMAP
015554
7FFFFE
155005
000000
000000
156AA4
7FFFF8
ENDCHAR
STARTCHAR greater
ENCODING 62
SWIDTH 403 0
DWIDTH 10 0
BBX 10 11 0 0
BITMAP
780000
2E4000
06F940
001BD0
0002D0
000780
002E00
01B400
078000
2E0000
740000
ENDCHAR
STARTCHAR question
ENCODING 63
SWIDTH 272 0
DWIDTH 7 0
BBX 6 21 0 0
BITMAP
2A00
ABC0
40A0
0070
0070
00B0
00E0
01D0
03C0
0740
0E00
0D00
0FA0
0190
0000
0000
0000
0000
0000
0060
00A0
ENDCHAR
STARTCHAR at
ENCODING 64
SWIDTH 815 0
DWIDTH 20 0
BBX 19 22 0 0
BITMAP
0001540000
001FFF8000
00B401B400
0280001E00
0A000002C0
18000000B0
2400000038
60007F9028
500290B81C
900A001C1C
901C00941C
602800E028
602400E034
302401F070
282803FAE0
1D0E5E1B40
0A02F80000
0380000000
01E0000000
0078000010
000B905BE0
0001BFFA40
ENDCHAR
STARTCHAR A
ENCODING 65
SWIDTH 562 0
DWIDTH 14 0
BBX 13 19 0 0
BITMAP
00040000
01FF8000
0741E000
09003400
0C001C00
18000D00
24000A00
24000700
24000300
24000340
34000340
7FFEAB80
38005680
24000280
28000280
280002C0
2C000280
1C000380
0C000340
ENDCHAR
STARTCHAR B
ENCODING 66
SWIDTH 741 0
DWIDTH 18 0
BBX 18 17 0 0
BITMAP
005A400000
2FFFF80000
64B40B0000
0070028000
0034024000
0028070000
0028BD0000
001DFE0000
001D1BD000
000D00B800
000E000A00
000A000280
000B0001C0
000B0001D0
001E0002D0
001FE55B80
0001AFF900
ENDCHAR
STARTCHAR C
ENCODING 67
SWIDTH 515 0
DWIDTH 12 0
BBX 12 16 0 0
BITMAP
000140
002FD0
00F490
038080
0A0000
180000
200000
600000
600000
A00000
600000
700000
340000
280015
0FABFD
02FA40
ENDCHAR
STARTCHAR D
ENCODING 68
SWIDTH 741 0
DWIDTH 18 0
BBX 17 16 0 -1
BITMAP
1BFF900000
7957FD0000
000387D000
000280B800
0002801D00
0001C00B40
0001C00380
0000D001C0
0000D001C0
0000D001C0
0000E002C0
0000D00780
0000901F00
000E55B800
0007FFD000
0000140000
ENDCHAR
STARTCHAR E
ENCODING 69
SWIDTH 524 0
DWIDTH 13 0
BBX 12 15 0 0
BITMAP
2AAAA4
7AAA58
700000
700000
700000
700154
7ABFE0
795400
700000
600000
600000
A00000
600000
7AAAFD
1BFFA4
ENDCHAR
STARTCHAR F
ENCODING 70
SWIDTH 514 0
DWIDTH 12 0
BBX 16 15 -1 0
BITMAP
00155400
6FFFFFE4
55F405BD
00A00005
00A00000
00A00000
00A00000
00FAA900
0FFFF900
00340000
00340000
00280000
00280000
002C0000
00180000
ENDCHAR
STARTCHAR G
ENCODING 71
SWIDTH 571 0
DWIDTH 14 0
BBX 14 15 0 -2
BITMAP
00005900
0007FF40
00790000
01D00000
0B000000
1D000000
280EAF40
30055780
70000280
30000280
28000B80
0FAABF80
02A94280
000002D0
00000080
ENDCHAR
STARTCHAR H
ENCODING 72
SWIDTH 524 0
DWIDTH 13 0
BBX 12 16 0 0
BITMAP
10000C
30000C
30000C
30000C
34001C
34001C
24006C
2807EC
287E0C
2FE00D
7D000D
1C000D
0C000D
0D000A
0D000A
080006
ENDCHAR
STARTCHAR I
ENCODING 73
SWIDTH 167 0
DWIDTH 4 0
BBX 4 14 0 0
BITMAP
40
90
60
70
34
28
28
1C
1C
0D
0D
0D
0A
06
ENDCHAR
STARTCHAR J
ENCODING 74
SWIDTH 439 0
DWIDTH 11 0
BBX 10 17 0 0
BITMAP
000140
000180
0001C0
0000D0
0000D0
0000A0
0000A0
0000B0
100070
600070
700070
240070
0D0070
070070
01D0A0
0079D0
000B80
ENDCHAR
STARTCHAR K
ENCODING 75
SWIDTH 468 0
DWIDTH 11 0
BBX 11 14 0 0
BITMAP
500700
602D00
607400
71D000
338000
3E0000
3C0000
3D0000
3F4000
36D000
34B800
281F40
2802E0
180078
ENDCHAR
STARTCHAR L
ENCODING 76
SWIDTH 346 0
DWIDTH 8 0
BBX 8 13 0 0
BITMAP
1400
2400
3400
3400
7400
7000
7000
7000
A000
A000
7000
3EA5
0BFE
ENDCHAR
STARTCHAR M
ENCODING 77
SWIDTH 534 0
DWIDTH 13 0
BBX 12 15 0 0
BITMAP
600008
78001D
3C002D
2E007C
1F81FC
19FFEC
28151C
28000D
28000D
28000E
28000E
28000B
28000B
28000B
040007
ENDCHAR
STARTCHAR N
ENCODING 78
SWIDTH 609 0
DWIDTH 15 0
BBX 14 13 0 0
BITMAP
20000000
34000A00
38000B40
3C000780
3D0002C0
3E0000D0
3F0000A0
32800070
71D00070
70B400A0
742D01D0
740BEF80
3001A900
ENDCHAR
STARTCHAR O
ENCODING 79
SWIDTH 609 0
DWIDTH 15 0
BBX 14 12 0 0
BITMAP
01A40000
0BBF8000
2801F800
70001E00
60000780
A00001D0
600000A0
70000070
380000B0
1E4001D0
07E56F40
00BFA400
ENDCHAR
STARTCHAR P
ENCODING 80
SWIDTH 627 0
DWIDTH 15 0
BBX 15 15 0 0
BITMAP
01540000
2FFFE400
B0016F40
500402E0
000C0074
000C0028
000C0028
000C0074
000E06E0
000FFE40
000F9000
000A0000
000A0000
00070000
00020000
ENDCHAR
STARTCHAR Q
ENCODING 81
SWIDTH 642 0
DWIDTH 15 0
BBX 16 16 0 -3
BITMAP
00AE4000
07ABE000
1D00B800
24006B00
3000A2C0
700000A0
70000034
70010028
34028018
2800E024
0E40B5E0
02EAFF80
006FEB40
000001D0
00000078
00000019
ENDCHAR
STARTCHAR R
ENCODING 82
SWIDTH 579 0
DWIDTH 14 0
BBX 14 16 -1 -1
BITMAP
0AFFE400
2E55AE40
700007C0
108000D0
00C000E0
00D01BD0
00EAFE00
00FE9000
00B40000
00BC0000
006B0000
00328000
0034B400
00241D00
00140790
000000B0
ENDCHAR
STARTCHAR S
ENCODING 83
SWIDTH 627 0
DWIDTH 15 0
BBX 15 15 0 0
BITMAP
00055000
00BEBE00
028007C0
02400040
02800000
00E00000
002D0000
0007E000
00007E00
10000780
700000B0
74000034
2D000074
079555E0
006FFE80
ENDCHAR
STARTCHAR T
ENCODING 84
SWIDTH 581 0
DWIDTH 14 0
BBX 16 15 0 0
BITMAP
55540000
6FFFFFA4
001695BF
00028000
00018000
0001C000
0001C000
0001C000
0000D000
0000D000
0000E000
0000A000
0000B000
00007400
00003800
ENDCHAR
STARTCHAR U
ENCODING 85
SWIDTH 571 0
DWIDTH 14 0
BBX 14 13 0 0
BITMAP
28000800
30001C00
60001D00
60001D00
60000D00
70000D00
30000A00
34000700
28000B40
1C001F80
0E00BBC0
07EBD1D0
01BD0040
ENDCHAR
STARTCHAR V
ENCODING 86
SWIDTH 421 0
DWIDTH 10 0
BBX 10 13 0 0
BITMAP
500040
700090
3800D0
2C01D0
1D01D0
0F02C0
0B4280
038380
02D740
00E700
00BE00
003C00
002400
ENDCHAR
STARTCHAR W
ENCODING 87
SWIDTH 703 0
DWIDTH 17 0
BBX 17 12 0 0
BITMAP
5000001400
A000002C00
A000001D00
A000000E00
A001000B00
B007000700
7007400340
7407800340
340BC00340
2C2DB00B00
0FF42EBD00
06900BE000
ENDCHAR
STARTCHAR X
ENCODING 88
SWIDTH 534 0
DWIDTH 13 0
BBX 13 15 0 -2
BITMAP
04000000
0D000640
07002D00
0280B400
00D28000
00BE0000
00780000
00FC0000
029E0000
0B074000
1D02C000
2800A000
70002400
60000000
40000000
ENDCHAR
STARTCHAR Y
ENCODING 89
SWIDTH 403 0
DWIDTH 10 0
BBX 10 17 0 -1
BITMAP
400000
A00040
7000D0
3801C0
1E02C0
079380
00BF40
001E00
000D00
001C00
002800
003400
003400
007000
007000
007000
001000
ENDCHAR
STARTCHAR Z
ENCODING 90
SWIDTH 571 0
DWIDTH 14 0
BBX 14 15 0 0
BITMAP
1BA80000
B95B4000
0001D000
0000A000
0000A000
00009000
0001D000
01AFFF40
07AF9500
000A0000
001C0000
00340000
00A00140
00E5BFD0
007FE900
ENDCHAR
STARTCHAR bracketleft
ENCODING 91
SWIDTH 477 0
DWIDTH 11 0
BBX 13 19 0 -2
BITMAP
0005A800
01BE9000
2F900000
74000000
74000000
34000000
2C000000
1C000000
1D000000
0D000000
09000000
0A000000
06000000
07000000
03000000
03000000
03400000
03AAAA80
02EAAA80
ENDCHAR
STARTCHAR backslash
ENCODING 92
SWIDTH 430 0
DWIDTH 10 0
BBX 10 13 0 0
BITMAP
900000
740000
2C0000
0F0000
078000
01E000
00B400
002D00
000F00
000780
0001D0
0000E0
0000A0
ENDCHAR
STARTCHAR bracketright
ENCODING 93
SWIDTH 430 0
DWIDTH 10 0
BBX 10 23 0 -3
BITMAP
BE9400
1AFE00
000740
000280
0002C0
0001C0
0000C0
0000C0
0000D0
000090
000090
000090
000090
000090
0000A0
0000A0
0000A0
0000A0
0000A0
0000A0
1AAAF0
1FFFF0
055540
ENDCHAR
STARTCHAR asciicircum
ENCODING 94
SWIDTH 375 0
DWIDTH 9 0
BBX 7 6 1 12
BITMAP
0100
0780
0BE0
2DF4
B438
0004
ENDCHAR
STARTCHAR underscore
ENCODING 95
SWIDTH 656 0
DWIDTH 16 0
BBX 15 3 1 0
BITMAP
54000000
6FFFAAA0
005AAFF4
ENDCHAR
STARTCHAR grave
ENCODING 96
SWIDTH 172 0
DWIDTH 4 0
BBX 4 3 0 10
BITMAP
74
1D
05
ENDCHAR
STARTCHAR a
ENCODING 97
SWIDTH 505 0
DWIDTH 12 0
BBX 12 12 0 0
BITMAP
00B800
019B40
0002D0
0000B0
005474
0BFFB8
3901BC
70002D
60000D
740005
1FAAFD
06BF90
ENDCHAR
STARTCHAR b
ENCODING 98
SWIDTH 497 0
DWIDTH 12 0
BBX 12 15 0 0
BITMAP
A00000
A00000
B00000
700000
700000
340000
340000
2FFE00
2E5BE0
2C0078
1C001D
1C000D
0E001D
07E5BC
01FFA0
ENDCHAR
STARTCHAR c
ENCODING 99
SWIDTH 449 0
DWIDTH 11 0
BBX 10 11 0 0
BITMAP
01FD00
0A4740
280140
340000
700000
A00000
700000
740000
3C0000
1F9550
02BFE0
ENDCHAR
STARTCHAR d
ENCODING 100
SWIDTH 524 0
DWIDTH 13 0
BBX 12 17 0 0
BITMAP
000080
0000E0
0000B0
0000B4
000078
000038
07E42C
1FFF6C
3D02FD
78007D
70002D
B0003E
70007E
7401FE
3807CA
1EBE07
07E400
ENDCHAR
STARTCHAR e
ENCODING 101
SWIDTH 515 0
DWIDTH 12 0
BBX 12 13 0 0
BITMAP
005400
07EE00
1E0340
280180
700180
700740
A56E00
77A000
700000
340000
1E0000
07EAA9
00AFE4
ENDCHAR
STARTCHAR f
ENCODING 102
SWIDTH 376 0
DWIDTH 9 0
BBX 11 17 0 0
BITMAP
006E40
01E6E0
028078
070018
060000
090000
0A0000
0A0000
0A0000
6FA900
EBEE40
038000
01C000
00E000
007400
003C00
001D00
ENDCHAR
STARTCHAR g
ENCODING 103
SWIDTH 366 0
DWIDTH 9 0
BBX 12 22 -3 -12
BITMAP
0006D0
001EB4
007428
00D01C
01C01D
01C02D
02C02D
01E0BD
007FEE
00151E
00000E
00000A
00000A
00000A
00000A
80000A
C0000A
D0000E
78001D
1F902C
02FFF4
001A90
ENDCHAR
STARTCHAR h
ENCODING 104
SWIDTH 427 0
DWIDTH 10 0
BBX 11 17 -1 0
BITMAP
600000
700000
340000
280000
1C0000
1C0000
0DA900
0FFF80
0E01C0
0900A0
0A0070
0A0030
0A0034
070034
070074
070074
030070
ENDCHAR
STARTCHAR i
ENCODING 105
SWIDTH 174 0
DWIDTH 4 0
BBX 4 15 0 0
BITMAP
40
A0
00
00
14
28
28
28
1C
1C
1D
1E
0E
0E
0A
ENDCHAR
STARTCHAR j
ENCODING 106
SWIDTH 200 0
DWIDTH 5 0
BBX 9 25 -3 -11
BITMAP
01C000
009000
000000
000000
001000
003000
003400
002800
002C00
001D00
001D00
000E00
000E00
000B00
000B00
000700
400740
A00340
700340
380340
2C0340
0E0340
079700
00FF00
001900
ENDCHAR
STARTCHAR k
ENCODING 107
SWIDTH 403 0
DWIDTH 10 0
BBX 10 15 0 0
BITMAP
400000
C00000
900000
A00000
700900
702C00
347000
35C000
2F4000
2E0000
2D0000
2F0000
2FE000
287F90
240A90
ENDCHAR
STARTCHAR l
ENCODING 108
SWIDTH 120 0
DWIDTH 3 0
BBX 3 14 0 0
BITMAP
60
70
70
70
70
74
74
74
74
74
74
74
30
30
ENDCHAR
STARTCHAR m
ENCODING 109
SWIDTH 750 0
DWIDTH 18 0
BBX 18 10 0 0
BITMAP
015006F800
6FFC1F9E00
7D0B780740
7803E00280
7402D001C0
3401D000D0
3400E000D0
3400B000D0
34001001D0
14000001C0
ENDCHAR
STARTCHAR n
ENCODING 110
SWIDTH 459 0
DWIDTH 11 0
BBX 11 11 0 0
BITMAP
00BD00
6B9B40
7D02C0
7800E0
7400B0
740074
340034
380038
2C0038
1C0034
080034
ENDCHAR
STARTCHAR o
ENCODING 111
SWIDTH 487 0
DWIDTH 12 0
BBX 11 10 0 0
BITMAP
01BF40
0BABE0
2C00B4
700028
60001C
A0001C
700038
3801F4
1E5BD0
06FE40
ENDCHAR
STARTCHAR p
ENCODING 112
SWIDTH 520 0
DWIDTH 13 0
BBX 12 18 0 -9
BITMAP
001500
06FFE0
1F507C
38000E
780007
B80007
BAE46E
78BFF8
7C0540
3C0000
2D0000
2D0000
1E0000
0E0000
0B0000
070000
034000
010000
ENDCHAR
STARTCHAR q
ENCODING 113
SWIDTH 412 0
DWIDTH 10 0
BBX 9 20 0 -8
BITMAP
01BD00
0B5780
1C01C0
3402C0
700280
600380
A00380
600380
700340
2D0740
0FFF40
019740
000340
000340
000380
000280
000280
000280
000280
000040
ENDCHAR
STARTCHAR r
ENCODING 114
SWIDTH 346 0
DWIDTH 8 0
BBX 8 11 0 0
BITMAP
02A8
6EAF
B400
7000
7000
7000
3400
2800
1C00
0D00
0900
ENDCHAR
STARTCHAR s
ENCODING 115
SWIDTH 514 0
DWIDTH 12 0
BBX 12 11 0 0
BITMAP
06F900
2E5B00
340240
340200
1E5000
02BFE0
00006D
00000E
74000E
2E557D
06BFE4
ENDCHAR
STARTCHAR t
ENCODING 116
SWIDTH 328 0
DWIDTH 8 0
BBX 8 15 0 0
BITMAP
0340
0340
0380
0380
0380
BFFE
1BD4
0380
0380
0380
0380
0280
0280
01C0
0080
ENDCHAR
STARTCHAR u
ENCODING 117
SWIDTH 501 0
DWIDTH 12 0
BBX 12 12 0 0
BITMAP
100000
600000
A00060
A00070
A00074
700074
3400B4
2800F4
1D02F8
0B9E1C
01F80D
000005
ENDCHAR
STARTCHAR v
ENCODING 118
SWIDTH 389 0
DWIDTH 9 0
BBX 9 9 0 0
BITMAP
A00000
740280
380740
1C0B00
0D0D00
071C00
03A800
01F400
00A000
ENDCHAR
STARTCHAR w
ENCODING 119
SWIDTH 656 0
DWIDTH 16 0
BBX 15 10 0 0
BITMAP
20000000
70000050
A0014070
A0028028
A002801C
A002C01C
7003D01C
280BE03C
0EBD7EF4
02E40A90
ENDCHAR
STARTCHAR x
ENCODING 120
SWIDTH 448 0
DWIDTH 11 0
BBX 11 10 0 -1
BITMAP
E000B4
7802D0
1E1E00
07F800
02F000
03F800
091E00
180780
2401E0
0000B0
ENDCHAR
STARTCHAR y
ENCODING 121
SWIDTH 487 0
DWIDTH 12 0
BBX 12 23 0 -12
BITMAP
000010
900020
A00024
A00028
700028
34002C
28002C
1C007C
0A01FC
02EF4D
006409
000009
000009
00000D
00000D
00000C
00001C
10001C
340028
2D0034
0B80B0
01FBD0
001A40
ENDCHAR
STARTCHAR z
ENCODING 122
SWIDTH 459 0
DWIDTH 11 0
BBX 11 13 0 0
BITMAP
015000
2FFD00
740700
000700
000700
000E00
16AF80
2FF940
01D000
038000
0B0020
0FABF4
06FE40
ENDCHAR
STARTCHAR braceleft
ENCODING 123
SWIDTH 393 0
DWIDTH 9 0
BBX 9 25 0 -3
BITMAP
001500
01FB80
0B4180
2C0000
740000
B00000
600000
700000
280000
1F4000
02F800
00FD00
07EA00
2D0700
100B00
001D00
00B400
028000
0A0000
1C0000
180000
1C0000
0F4040
07FF80
005400
ENDCHAR
STARTCHAR bar
ENCODING 124
SWIDTH 149 0
DWIDTH 4 0
BBX 3 16 0 0
BITMAP
40
90
60
70
34
24
28
28
18
1C
1C
1C
1C
1C
1C
1C
ENDCHAR
STARTCHAR braceright
ENCODING 125
SWIDTH 440 0
DWIDTH 11 0
BBX 10 29 0 -6
BITMAP
1AA400
BAAE00
740740
000280
000380
000B40
002D00
00B400
02D000
074000
070000
03FF40
03E940
034000
038000
01E000
003800
000D00
000700
000280
0001C0
0000A0
000060
000070
000070
8000E0
B402C0
2FAF40
015400
ENDCHAR
STARTCHAR asciitilde
ENCODING 126
SWIDTH 402 0
DWIDTH 10 0
BBX 9 4 0 9
BITMAP
2E4180
71EA00
601800
100000
ENDCHAR
STARTCHAR nonbreakingspace
ENCODING 160
SWIDTH 375 0
DWIDTH 9 0
BBX 1 1 0 0
BITMAP
00
ENDCHAR
STARTCHAR exclamdown
ENCODING 161
SWIDTH 149 0
DWIDTH 4 0
BBX 3 16 0 0
BITMAP
78
7C
00
00
00
24
34
34
34
34
34
34
30
30
30
30
ENDCHAR
STARTCHAR cent
ENCODING 162
SWIDTH 449 0
DWIDTH 11 0
BBX 10 15 0 -2
BITMAP
005000
006000
00B400
07BF40
1D3680
343540
703800
A03800
B03800
702800
382800
1FB950
06FFA0
002400
001000
ENDCHAR
STARTCHAR sterling
ENCODING 163
SWIDTH 758 0
DWIDTH 18 0
BBX 18 18 0 0
BITMAP
0000001400
000002FF40
00000B42D0
00001C00A0
0000240050
0000300000
0000A00000
0001FAA400
01BFFAA400
0195D00000
0001C00000
0001800000
0002400000
0007000000
000A000000
BFFFFE0000
BFFABF4000
2F80000000
ENDCHAR
STARTCHAR currency
ENCODING 164
SWIDTH 618 0
DWIDTH 15 0
BBX 13 13 1 0
BITMAP
80000000
B46FD740
2EFAFD00
0F401D00
1D000600
28000300
28000700
18000A00
0D001D00
0F81B400
2DBFB400
34001D00
10000400
ENDCHAR
STARTCHAR yen
ENCODING 165
SWIDTH 389 0
DWIDTH 9 0
BBX 10 18 0 0
BITMAP
240000
280090
1C01C0
0D0380
060B00
030E00
02AC00
00F800
00B000
00A000
7FFA00
00A500
05E400
3FFE00
00E000
00D000
01D000
01D000
ENDCHAR
STARTCHAR brokenbar
ENCODING 166
SWIDTH 117 0
DWIDTH 3 0
BBX 2 14 0 0
BITMAP
50
70
70
70
70
70
10
70
70
70
70
70
70
30
ENDCHAR
STARTCHAR section
ENCODING 167
SWIDTH 514 0
DWIDTH 12 0
BBX 11 16 1 0
BITMAP
0AA400
7EAF40
A002D0
600060
390000
2FFE90
B955B4
E0002C
D0002C
7955B8
1BFFE0
0001B0
000038
A00038
3E55F4
06FF90
ENDCHAR
STARTCHAR dieresis
ENCODING 168
SWIDTH 397 0
DWIDTH 10 0
BBX 7 3 1 10
BITMAP
1420
7CB8
2424
ENDCHAR
STARTCHAR copyright
ENCODING 169
SWIDTH 667 0
DWIDTH 16 0
BBX 15 14 1 0
BITMAP
00550000
02FFE400
0E01BE00
241A4B80
7076E1D0
91C060A0
C2801034
C3400024
C3400028
D2800028
B5E5A834
3D2AE5E0
0F956F80
01BFA400
ENDCHAR
STARTCHAR ordfeminine
ENCODING 170
SWIDTH 266 0
DWIDTH 6 0
BBX 6 7 0 5
BITMAP
0500
0640
0080
2AD0
5060
5010
2B90
ENDCHAR
STARTCHAR guillemotleft
ENCODING 171
SWIDTH 755 0
DWIDTH 18 0
BBX 17 11 0 0
BITMAP
0000000B40
0000187900
0001E6D000
000B9E4000
007DB40000
01E2D00000
0B4B900000
380BFFA400
BE9416BE00
1AFFD00500
0005B00000
ENDCHAR
STARTCHAR logicalnot
ENCODING 172
SWIDTH 369 0
DWIDTH 9 0
BBX 8 4 1 6
BITMAP
AAA8
AAAD
000D
000C
ENDCHAR
STARTCHAR hyphen_
ENCODING 173
SWIDTH 375 0
DWIDTH 9 0
BBX 8 2 0 6
BITMAP
16A9
7FAB
ENDCHAR
STARTCHAR registered
ENCODING 174
SWIDTH 708 0
DWIDTH 17 0
BBX 15 14 1 0
BITMAP
01AA4000
07AAF800
1C002F00
36AE97C0
A75578E0
D0602C70
C0757834
C07E9028
D0790028
A0374028
7834A074
2E502ED0
07EAFE00
006A4000
ENDCHAR
STARTCHAR macron
ENCODING 175
SWIDTH 287 0
DWIDTH 7 0
BBX 6 2 1 11
BITMAP
AFE0
E5A0
ENDCHAR
STARTCHAR degree
ENCODING 176
SWIDTH 254 0
DWIDTH 6 0
BBX 5 7 0 7
BITMAP
0A00
2680
8080
8040
8080
5180
2E00
ENDCHAR
STARTCHAR plusminus
ENCODING 177
SWIDTH 459 0
DWIDTH 11 0
BBX 11 12 0 0
BITMAP
004000
00D000
00A000
00B000
00B950
6FFFF8
657800
003800
003800
017A90
1FEAA4
140000
ENDCHAR
STARTCHAR twosuperior
ENCODING 178
SWIDTH 296 0
DWIDTH 7 0
BBX 6 8 0 5
BITMAP
0280
0550
0020
0020
0050
0080
BA80
6AA0
ENDCHAR
STARTCHAR threesuperior
ENCODING 179
SWIDTH 204 0
DWIDTH 5 0
BBX 5 8 0 6
BITMAP
A900
4200
0600
7C00
0600
4080
9080
2F40
ENDCHAR
STARTCHAR acute
ENCODING 180
SWIDTH 180 0
DWIDTH 4 0
BBX 4 4 0 9
BITMAP
06
2C
B0
40
ENDCHAR
STARTCHAR mu
ENCODING 181
SWIDTH 501 0
DWIDTH 12 0
BBX 12 14 0 -2
BITMAP
100000
600000
A00060
A00070
A00070
B00074
B400B4
B800F4
BD02F8
AF5B6C
A2FD1D
A0100A
A00000
500000
ENDCHAR
STARTCHAR paragraph
ENCODING 182
SWIDTH 413 0
DWIDTH 10 0
BBX 9 14 0 -1
BITMAP
005400
1FFF40
3FFF80
7FFA80
7FF9C0
7FF9C0
2AB9C0
0025C0
0025C0
0025C0
0025C0
0029C0
002980
001040
ENDCHAR
STARTCHAR periodcentered
ENCODING 183
SWIDTH 212 0
DWIDTH 5 0
BBX 3 3 1 4
BITMAP
78
BC
64
ENDCHAR
STARTCHAR cedilla
ENCODING 184
SWIDTH 445 0
DWIDTH 11 0
BBX 6 9 4 -8
BITMAP
4000
C000
D000
7900
06D0
0060
D060
7ED0
0500
ENDCHAR
STARTCHAR onesuperior
ENCODING 185
SWIDTH 197 0
DWIDTH 5 0
BBX 6 9 -1 5
BITMAP
0090
00D0
02C0
0BC0
2980
6180
0240
0240
0200
ENDCHAR
STARTCHAR ordmasculine
ENCODING 186
SWIDTH 254 0
DWIDTH 6 0
BBX 5 7 0 7
BITMAP
0A00
2680
8080
8040
8080
5180
2E00
ENDCHAR
STARTCHAR guillemotright
ENCODING 187
SWIDTH 659 0
DWIDTH 16 0
BBX 15 12 0 0
BITMAP
00090000
780B8000
2E41F900
06F95BF4
001BD078
0002D0B4
000782D0
002E1B40
01B47800
0782D000
2E0E4000
74040000
ENDCHAR
STARTCHAR onequarter
ENCODING 188
SWIDTH 626 0
DWIDTH 15 0
BBX 14 18 0 -1
BITMAP
00020000
00820000
01830000
02820000
0B860000
26490000
624C0000
031C0000
03188000
02258000
00324010
00720060
006241D0
0091DBD0
00C06890
018000A0
02400060
02000000
ENDCHAR
STARTCHAR onehalf
ENCODING 189
SWIDTH 566 0
DWIDTH 14 0
BBX 13 18 0 -1
BITMAP
00014000
00824000
00C20000
01C30000
07C60000
0F8A0000
36890000
A24C1800
02582600
03681300
03340240
02700240
00600300
00900600
00DA0900
018FFD00
0246AB80
02000000
ENDCHAR
STARTCHAR threequarters
ENCODING 190
SWIDTH 566 0
DWIDTH 14 0
BBX 13 18 0 -2
BITMAP
00014000
00024000
6A024000
01430000
16020000
2E060000
02894000
408CC000
609D8000
1B994080
00254180
00318380
0070AE80
00601580
00900080
00C00080
01800000
01400000
ENDCHAR
STARTCHAR questiondown
ENCODING 191
SWIDTH 272 0
DWIDTH 7 0
BBX 7 18 0 0
BITMAP
3400
1000
0000
0000
0000
0000
2900
1BC0
02C0
0780
0F00
2D00
3800
7400
7000
3400
2D58
06E4
ENDCHAR
STARTCHAR Agrave
ENCODING 192
SWIDTH 562 0
DWIDTH 14 0
BBX 13 23 0 0
BITMAP
00100000
002C0000
000B0000
00010000
00040000
01FF8000
0741E000
09003400
0C001C00
18000D00
24000A00
24000700
24000300
24000340
34000340
7FFEAB80
38005680
24000280
28000280
280002C0
2C000280
1C000380
0C000340
ENDCHAR
STARTCHAR Aacute
ENCODING 193
SWIDTH 562 0
DWIDTH 14 0
BBX 13 22 0 0
BITMAP
001C0000
00B40000
01D00000
01040000
01FF8000
0741E000
09003400
0C001C00
18000D00
24000A00
24000700
24000300
24000340
34000340
7FFEAB80
38005680
24000280
28000280
280002C0
2C000280
1C000380
0C000340
ENDCHAR
STARTCHAR Acircumflex
ENCODING 194
SWIDTH 562 0
DWIDTH 14 0
BBX 13 24 0 0
BITMAP
00140000
002D0000
007F0000
01EB8000
0782C000
01044000
01FF8000
0741E000
09003400
0C001C00
18000D00
24000A00
24000700
24000300
24000340
34000340
7FFEAB80
38005680
24000280
28000280
280002C0
2C000280
1C000380
0C000340
ENDCHAR
STARTCHAR Atilde
ENCODING 195
SWIDTH 562 0
DWIDTH 14 0
BBX 13 22 0 0
BITMAP
07D07000
0D2ED000
0C064000
04040000
01FF8000
0741E000
09003400
0C001C00
18000D00
24000A00
24000700
24000300
24000340
34000340
7FFEAB80
38005680
24000280
28000280
280002C0
2C000280
1C000380
0C000340
ENDCHAR
STARTCHAR Adieresis
ENCODING 196
SWIDTH 562 0
DWIDTH 14 0
BBX 13 22 0 0
BITMAP
00814000
02E3D000
01918000
00040000
01FF8000
0741E000
09003400
0C001C00
18000D00
24000A00
24000700
24000300
24000340
34000340
7FFEAB80
38005680
24000280
28000280
280002C0
2C000280
1C000380
0C000340
ENDCHAR
STARTCHAR Aring
ENCODING 197
SWIDTH 562 0
DWIDTH 14 0
BBX 13 22 0 0
BITMAP
006D0000
00820000
00820000
00AE0000
01FF8000
0741E000
09003400
0C001C00
18000D00
24000A00
24000700
24000300
24000340
34000340
7FFEAB80
38005680
24000280
28000280
280002C0
2C000280
1C000380
0C000340
ENDCHAR
STARTCHAR AE
ENCODING 198
SWIDTH 960 0
DWIDTH 23 0
BBX 23 19 0 0
BITMAP
000400000000
01FF80000000
0741E0000000
090034000000
0C001CFEAA90
18000DEA9560
24000AD00000
240007D00000
240003D00000
240003D00590
340003EAFE80
7FFEABE54000
380056C00000
240002C00000
280002C00000
280002C00000
2C0002C00000
1C0003EAAFF4
0C0003AFFE90
ENDCHAR
STARTCHAR Ccedilla
ENCODING 199
SWIDTH 515 0
DWIDTH 12 0
BBX 12 24 0 -8
BITMAP
000140
002FD0
00F490
038080
0A0000
180000
200000
600000
600000
A00000
600000
700000
340000
280015
0FABFD
02FA40
028000
018000
00A900
001680
0000D0
0280D0
00BA80
001400
ENDCHAR
STARTCHAR Egrave
ENCODING 200
SWIDTH 524 0
DWIDTH 13 0
BBX 12 19 0 0
BITMAP
007400
001D00
000500
000000
2AAAA4
7AAA58
700000
700000
700000
700154
7ABFE0
795400
700000
600000
600000
A00000
600000
7AAAFD
1BFFA4
ENDCHAR
STARTCHAR Eacute
ENCODING 201
SWIDTH 524 0
DWIDTH 13 0
BBX 12 19 0 0
BITMAP
000900
007800
00E000
004000
2AAAA4
7AAA58
700000
700000
700000
700154
7ABFE0
795400
700000
600000
600000
A00000
600000
7AAAFD
1BFFA4
ENDCHAR
STARTCHAR Ecircumflex
ENCODING 202
SWIDTH 524 0
DWIDTH 13 0
BBX 12 22 0 0
BITMAP
000400
001E00
002F40
00B7D0
02D1E0
010010
000000
2AAAA4
7AAA58
700000
700000
700000
700154
7ABFE0
795400
700000
600000
600000
A00000
600000
7AAAFD
1BFFA4
ENDCHAR
STARTCHAR Edieresis
ENCODING 203
SWIDTH 524 0
DWIDTH 13 0
BBX 12 19 0 0
BITMAP
018140
02D3D0
018180
000000
2AAAA4
7AAA58
700000
700000
700000
700154
7ABFE0
795400
700000
600000
600000
A00000
600000
7AAAFD
1BFFA4
ENDCHAR
STARTCHAR Igrave
ENCODING 204
SWIDTH 167 0
DWIDTH 4 0
BBX 5 18 -1 0
BITMAP
7800
1E00
0500
0000
1000
2400
1800
1C00
0D00
0A00
0A00
0700
0700
0340
0340
0340
0280
0180
ENDCHAR
STARTCHAR Iacute
ENCODING 205
SWIDTH 167 0
DWIDTH 4 0
BBX 5 18 -1 0
BITMAP
0700
2D00
7400
4000
1000
2400
1800
1C00
0D00
0A00
0A00
0700
0700
0340
0340
0340
0280
0180
ENDCHAR
STARTCHAR Icircumflex
ENCODING 206
SWIDTH 167 0
DWIDTH 4 0
BBX 7 22 -1 0
BITMAP
0100
0B40
0FD0
39F0
E074
4010
0000
0000
1000
2400
1800
1C00
0D00
0A00
0A00
0700
0700
0340
0340
0340
0280
0180
ENDCHAR
STARTCHAR Idieresis
ENCODING 207
SWIDTH 167 0
DWIDTH 4 0
BBX 7 17 -3 0
BITMAP
2420
7CB8
2460
0100
0240
0180
01C0
00D0
00A0
00A0
0070
0070
0034
0034
0034
0028
0018
ENDCHAR
STARTCHAR Eth
ENCODING 208
SWIDTH 741 0
DWIDTH 18 0
BBX 17 16 0 -1
BITMAP
1BFF900000
7957FD0000
000347D000
000380B800
0002801D00
0002800B40
0006EA4380
002FEA81C0
0000D001C0
0000D001C0
0000E002C0
0000E00780
0000901F00
000E55B800
0007FFD000
0000140000
ENDCHAR
STARTCHAR Ntilde
ENCODING 209
SWIDTH 609 0
DWIDTH 15 0
BBX 14 17 0 0
BITMAP
00B80A00
0287B800
02409000
00000000
20000000
34000A00
38000B40
3C000780
3D0002C0
3E0000D0
3F0000A0
32800070
71D00070
70B400A0
742D01D0
740BEF80
3001A900
ENDCHAR
STARTCHAR Ograve
ENCODING 210
SWIDTH 609 0
DWIDTH 15 0
BBX 14 18 0 0
BITMAP
00040000
000B0000
0002C000
00004000
00000000
00000000
01A40000
0BBF8000
2801F800
70001E00
60000780
A00001D0
600000A0
70000070
380000B0
1E4001D0
07E56F40
00BFA400
ENDCHAR
STARTCHAR Oacute
ENCODING 211
SWIDTH 609 0
DWIDTH 15 0
BBX 14 17 0 0
BITMAP
00028000
000E0000
00380000
00100000
00000000
01A40000
0BBF8000
2801F800
70001E00
60000780
A00001D0
600000A0
70000070
380000B0
1E4001D0
07E56F40
00BFA400
ENDCHAR
STARTCHAR Ocircumflex
ENCODING 212
SWIDTH 609 0
DWIDTH 15 0
BBX 14 19 0 0
BITMAP
00100000
00740000
00FD0000
02DF0000
0B074000
04010000
00000000
01A40000
0BBF8000
2801F800
70001E00
60000780
A00001D0
600000A0
70000070
380000B0
1E4001D0
07E56F40
00BFA400
ENDCHAR
STARTCHAR Otilde
ENCODING 213
SWIDTH 609 0
DWIDTH 15 0
BBX 14 16 0 0
BITMAP
07D02400
0D2ED000
0C064000
04000000
01A40000
0BBF8000
2801F800
70001E00
60000780
A00001D0
600000A0
70000070
380000B0
1E4001D0
07E56F40
00BFA400
ENDCHAR
STARTCHAR Odieresis
ENCODING 214
SWIDTH 609 0
DWIDTH 15 0
BBX 14 17 0 0
BITMAP
00205000
00B8F400
00606000
00000000
00000000
01A40000
0BBF8000
2801F800
70001E00
60000780
A00001D0
600000A0
70000070
380000B0
1E4001D0
07E56F40
00BFA400
ENDCHAR
STARTCHAR multiply
ENCODING 215
SWIDTH 448 0
DWIDTH 11 0
BBX 7 7 1 1
BITMAP
6008
7878
1FE0
0BC0
0EE0
2874
1010
ENDCHAR
STARTCHAR Oslash
ENCODING 216
SWIDTH 609 0
DWIDTH 15 0
BBX 14 19 0 -3
BITMAP
00001000
00006000
0000A000
0000D000
0195C000
0BBFC000
2803F800
70075E00
600A0780
A00D01D0
601C00A0
70280070
383400B0
1EB001D0
07F56F40
01FFA400
02C00000
03400000
01000000
ENDCHAR
STARTCHAR Ugrave
ENCODING 217
SWIDTH 571 0
DWIDTH 14 0
BBX 14 17 0 0
BITMAP
000E0000
00078000
00014000
00000000
28000800
30001C00
60001D00
60001D00
60000D00
70000D00
30000A00
34000700
28000B40
1C001F80
0E00BBC0
07EBD1D0
01BD0040
ENDCHAR
STARTCHAR Uacute
ENCODING 218
SWIDTH 571 0
DWIDTH 14 0
BBX 14 17 0 0
BITMAP
00070000
001D0000
00740000
00500000
28000800
30001C00
60001D00
60001D00
60000D00
70000D00
30000A00
34000700
28000B40
1C001F80
0E00BBC0
07EBD1D0
01BD0040
ENDCHAR
STARTCHAR Ucircumflex
ENCODING 219
SWIDTH 571 0
DWIDTH 14 0
BBX 14 22 0 0
BITMAP
00050000
000B4000
001FC000
007AE000
01E0B000
00401000
00000000
00000000
00000000
28000800
30001C00
60001D00
60001D00
60000D00
70000D00
30000A00
34000700
28000B40
1C001F80
0E00BBC0
07EBD1D0
01BD0040
ENDCHAR
STARTCHAR Udieresis
ENCODING 220
SWIDTH 571 0
DWIDTH 14 0
BBX 14 17 0 0
BITMAP
00505000
00F1F000
00909000
00000000
28000800
30001C00
60001D00
60001D00
60000D00
70000D00
30000A00
34000700
28000B40
1C001F80
0E00BBC0
07EBD1D0
01BD0040
ENDCHAR
STARTCHAR Yacute
ENCODING 221
SWIDTH 403 0
DWIDTH 10 0
BBX 10 21 0 -1
BITMAP
000600
002D00
00B000
004000
400000
A00040
7000D0
3801C0
1E02C0
079380
00BF40
001E00
000D00
001C00
002800
003400
003400
007000
007000
007000
001000
ENDCHAR
STARTCHAR Thorn
ENCODING 222
SWIDTH 497 0
DWIDTH 12 0
BBX 11 19 1 -4
BITMAP
500000
A00000
A00000
A00000
A00000
A00000
A00000
BFF800
B96F80
B001E0
B00074
700034
780074
7F96F0
76FE80
700000
700000
300000
100000
ENDCHAR
STARTCHAR germandbls
ENCODING 223
SWIDTH 590 0
DWIDTH 14 0
BBX 14 20 0 -3
BITMAP
1A500000
3FFD0000
78074000
7401C000
3401C000
34074000
387E0000
28BE4000
281BE000
18007D00
1C000740
0C0001C0
0C0000E0
0C0000E0
0C0006D0
0D2FFE40
0D154000
0D000000
1D000000
1E000000
ENDCHAR
STARTCHAR agrave
ENCODING 224
SWIDTH 505 0
DWIDTH 12 0
BBX 12 16 0 0
BITMAP
004000
00B000
002C00
000400
00B800
019B40
0002D0
0000B0
005474
0BFFB8
3901BC
70002D
60000D
740005
1FAAFD
06BF90
ENDCHAR
STARTCHAR aacute
ENCODING 225
SWIDTH 505 0
DWIDTH 12 0
BBX 12 16 0 0
BITMAP
000900
007800
00E000
004000
00B800
019B40
0002D0
0000B0
005474
0BFFB8
3901BC
70002D
60000D
740005
1FAAFD
06BF90
ENDCHAR
STARTCHAR acircumflex
ENCODING 226
SWIDTH 505 0
DWIDTH 12 0
BBX 12 18 0 0
BITMAP
001400
002D00
003F40
00E7C0
0381D0
010040
00B800
019B40
0002D0
0000B0
005474
0BFFB8
3901BC
70002D
60000D
740005
1FAAFD
06BF90
ENDCHAR
STARTCHAR atilde
ENCODING 227
SWIDTH 505 0
DWIDTH 12 0
BBX 12 17 0 0
BITMAP
079070
1C6AD0
180600
040000
000000
00B800
019B40
0002D0
0000B0
005474
0BFFB8
3901BC
70002D
60000D
740005
1FAAFD
06BF90
ENDCHAR
STARTCHAR adieresis
ENCODING 228
SWIDTH 505 0
DWIDTH 12 0
BBX 12 16 0 0
BITMAP
018140
02D3C0
018280
000000
00B800
019B40
0002D0
0000B0
005474
0BFFB8
3901BC
70002D
60000D
740005
1FAAFD
06BF90
ENDCHAR
STARTCHAR aring
ENCODING 229
SWIDTH 505 0
DWIDTH 12 0
BBX 12 16 0 0
BITMAP
001800
009700
008200
009A00
00BC00
019B40
0002D0
0000B0
005474
0BFFB8
3901BC
70002D
60000D
740005
1FAAFD
06BF90
ENDCHAR
STARTCHAR ae
ENCODING 230
SWIDTH 881 0
DWIDTH 21 0
BBX 21 13 0 -1
BITMAP
00B8006A4000
019B41E6D000
0002D740B000
0000BA007000
00547C00B000
0BFFBC06D000
3901BEBE4000
70002D540000
60000D000000
740007000000
1FAAFFE40000
06BF907FFF40
000000059400
ENDCHAR
STARTCHAR ccedilla
ENCODING 231
SWIDTH 449 0
DWIDTH 11 0
BBX 10 18 0 -7
BITMAP
006400
07AB40
1D0280
340140
700000
B00000
700000
700000
380000
1F9550
02FFE0
024000
018000
00B900
0006C0
0100D0
01D0D0
00BF40
ENDCHAR
STARTCHAR egrave
ENCODING 232
SWIDTH 515 0
DWIDTH 12 0
BBX 12 16 0 0
BITMAP
01E000
007800
001400
005400
07EE00
1E0340
280180
700180
700740
A56E00
77A000
700000
340000
1E0000
07EAA9
00AFE4
ENDCHAR
STARTCHAR eacute
ENCODING 233
SWIDTH 515 0
DWIDTH 12 0
BBX 12 17 0 0
BITMAP
001C00
00B400
01D000
014000
005400
07EE00
1E0340
280180
700180
700740
A56E00
77A000
700000
340000
1E0000
07EAA9
00AFE4
ENDCHAR
STARTCHAR ecircumflex
ENCODING 234
SWIDTH 515 0
DWIDTH 12 0
BBX 12 18 0 0
BITMAP
000400
001D00
003F40
00B7C0
02C1D0
015440
07EE00
1E0340
280180
700180
700740
A56E00
77A000
700000
340000
1E0000
07EAA9
00AFE4
ENDCHAR
STARTCHAR edieresis
ENCODING 235
SWIDTH 515 0
DWIDTH 12 0
BBX 12 16 0 0
BITMAP
014200
07CB80
024640
005400
07EE00
1E0340
280180
700180
700740
A56E00
77A000
700000
340000
1E0000
07EAA9
00AFE4
ENDCHAR
STARTCHAR igrave
ENCODING 236
SWIDTH 174 0
DWIDTH 4 0
BBX 4 14 0 0
BITMAP
74
1D
05
14
28
28
28
1C
1C
1D
1E
0E
0E
0A
ENDCHAR
STARTCHAR iacute
ENCODING 237
SWIDTH 174 0
DWIDTH 4 0
BBX 4 15 0 0
BITMAP
09
78
E0
40
14
28
28
28
1C
1C
1D
1E
0E
0E
0A
ENDCHAR
STARTCHAR icircumflex
ENCODING 238
SWIDTH 174 0
DWIDTH 4 0
BBX 7 18 -1 0
BITMAP
0100
0B40
0FD0
29F0
F074
4010
0000
0500
0A00
0A00
0A00
0700
0700
0740
0780
0380
0380
0280
ENDCHAR
STARTCHAR idieresis
ENCODING 239
SWIDTH 174 0
DWIDTH 4 0
BBX 6 14 -1 0
BITMAP
A0E0
F1F0
0040
0500
0A00
0A00
0A00
0700
0700
0740
0780
0380
0380
0280
ENDCHAR
STARTCHAR eth
ENCODING 240
SWIDTH 407 0
DWIDTH 10 0
BBX 10 14 0 -1
BITMAP
290000
7BD040
00BAE0
01BF80
03E740
000280
07FFC0
2D06D0
740090
700090
7001D0
2D4780
0BFE00
005400
ENDCHAR
STARTCHAR ntilde
ENCODING 241
SWIDTH 459 0
DWIDTH 11 0
BBX 11 15 0 0
BITMAP
1E41C0
35AB40
601900
100000
00BD00
6B9B40
7D02C0
7800E0
7400B0
740074
340034
380038
2C0038
1C0034
080034
ENDCHAR
STARTCHAR ograve
ENCODING 242
SWIDTH 487 0
DWIDTH 12 0
BBX 11 13 0 0
BITMAP
007800
001E00
000500
01BF40
0BABE0
2C00B4
700028
60001C
A0001C
700038
3801F4
1E5BD0
06FE40
ENDCHAR
STARTCHAR oacute
ENCODING 243
SWIDTH 487 0
DWIDTH 12 0
BBX 11 14 0 0
BITMAP
001900
007800
01D000
004000
01BF40
0BABE0
2C00B4
700028
60001C
A0001C
700038
3801F4
1E5BD0
06FE40
ENDCHAR
STARTCHAR ocircumflex
ENCODING 244
SWIDTH 487 0
DWIDTH 12 0
BBX 11 16 0 0
BITMAP
001000
003C00
007E00
01DB80
0742C0
010040
01BF40
0BABE0
2C00B4
700028
60001C
A0001C
700038
3801F4
1E5BD0
06FE40
ENDCHAR
STARTCHAR otilde
ENCODING 245
SWIDTH 487 0
DWIDTH 12 0
BBX 11 13 0 0
BITMAP
07D070
0D2ED0
0C0640
05BF40
0BABE0
2C00B4
700028
60001C
A0001C
700038
3801F4
1E5BD0
06FE40
ENDCHAR
STARTCHAR odieresis
ENCODING 246
SWIDTH 487 0
DWIDTH 12 0
BBX 11 13 0 0
BITMAP
014140
03C7C0
024240
01BF40
0BABE0
2C00B4
700028
60001C
A0001C
700038
3801F4
1E5BD0
06FE40
ENDCHAR
STARTCHAR divide
ENCODING 247
SWIDTH 335 0
DWIDTH 8 0
BBX 6 6 1 2
BITMAP
0600
0100
1540
FEF0
0000
0600
ENDCHAR
STARTCHAR oslash
ENCODING 248
SWIDTH 487 0
DWIDTH 12 0
BBX 11 11 0 0
BITMAP
0000C0
01AFC0
0BABE0
2D0AB4
701D28
60781C
A0B01C
72D038
3B81F4
1F5BD0
2AFE40
ENDCHAR
STARTCHAR ugrave
ENCODING 249
SWIDTH 501 0
DWIDTH 12 0
BBX 12 17 0 0
BITMAP
010000
02D000
00B400
001000
000000
100000
600000
A00060
A00070
A00074
700074
3400B4
2800F4
1D02F8
0B9E1C
01F80D
000005
ENDCHAR
STARTCHAR uacute
ENCODING 250
SWIDTH 501 0
DWIDTH 12 0
BBX 12 16 0 0
BITMAP
000900
007800
00E000
004000
100000
600000
A00060
A00070
A00074
700074
3400B4
2800F4
1D02F8
0B9E1C
01F80D
000005
ENDCHAR
STARTCHAR ucircumflex
ENCODING 251
SWIDTH 501 0
DWIDTH 12 0
BBX 12 18 0 0
BITMAP
001400
002D00
003F40
00E7C0
0381D0
010040
100000
600000
A00060
A00070
A00074
700074
3400B4
2800F4
1D02F8
0B9E1C
01F80D
000005
ENDCHAR
STARTCHAR udieresis
ENCODING 252
SWIDTH 501 0
DWIDTH 12 0
BBX 12 15 0 0
BITMAP
020600
0B8B40
024600
100000
600000
A00060
A00070
A00074
700074
3400B4
2800F4
1D02F8
0B9E1C
01F80D
000005
ENDCHAR
STARTCHAR yacute
ENCODING 253
SWIDTH 487 0
DWIDTH 12 0
BBX 12 28 0 -12
BITMAP
001D00
007400
01D000
004000
000000
000010
900020
A00024
A00028
700028
34002C
28002C
1C007C
0A01FC
02EF4D
006409
000009
000009
00000D
00000D
00000C
00001C
10001C
340028
2D0034
0B80B0
01FBD0
001A40
ENDCHAR
STARTCHAR thorn
ENCODING 254
SWIDTH 520 0
DWIDTH 13 0
BBX 12 17 0 -5
BITMAP
240000
340000
300000
31AF90
3FE5B8
3D001D
34000B
340007
79000B
7FFABD
75AAA0
740000
740000
740000
740000
340000
100000
ENDCHAR
STARTCHAR ydieresis
ENCODING 255
SWIDTH 487 0
DWIDTH 12 0
BBX 12 26 0 -12
BITMAP
024200
078B80
024600
000010
900020
A00024
A00028
700028
34002C
28002C
1C007C
0A01FC
02EF4D
006409
000009
000009
00000D
00000D
00000C
00001C
10001C
340028
2D0034
0B80B0
01FBD0
001A40
ENDCHAR
STARTCHAR Amacron
ENCODING 256
SWIDTH 562 0
DWIDTH 14 0
BBX 13 21 0 0
BITMAP
01BF8000
03A68000
00040000
01FF8000
0741E000
09003400
0C001C00
18000D00
24000A00
24000700
24000300
24000340
34000340
7FFEAB80
38005680
24000280
28000280
280002C0
2C000280
1C000380
0C000340
ENDCHAR
STARTCHAR amacron
ENCODING 257
SWIDTH 505 0
DWIDTH 12 0
BBX 12 16 0 0
BITMAP
02BF80
079680
000000
000000
00B800
019B40
0002D0
0000B0
005474
0BFFB8
3901BC
70002D
60000D
740005
1FAAFD
06BF90
ENDCHAR
STARTCHAR Abreve
ENCODING 258
SWIDTH 562 0
DWIDTH 14 0
BBX 13 22 0 0
BITMAP
0050C000
003B8000
00050000
00040000
01FF8000
0741E000
09003400
0C001C00
18000D00
24000A00
24000700
24000300
24000340
34000340
7FFEAB80
38005680
24000280
28000280
280002C0
2C000280
1C000380
0C000340
ENDCHAR
STARTCHAR abreve
ENCODING 259
SWIDTH 505 0
DWIDTH 12 0
BBX 12 16 0 0
BITMAP
014600
01ED00
001000
000000
00B800
019B40
0002D0
0000B0
005474
0BFFB8
3901BC
70002D
60000D
740005
1FAAFD
06BF90
ENDCHAR
STARTCHAR Aogonek
ENCODING 260
SWIDTH 562 0
DWIDTH 14 0
BBX 13 23 0 -4
BITMAP
00040000
01FF8000
0741E000
09003400
0C001C00
18000D00
24000A00
24000700
24000300
24000340
34000340
7FFEAB80
38005680
24000280
28000280
280002C0
2C000280
1C000380
0C001B40
00003800
00007000
00003A40
00000540
ENDCHAR
STARTCHAR aogonek
ENCODING 261
SWIDTH 505 0
DWIDTH 12 0
BBX 12 15 0 -3
BITMAP
00B800
019B40
0002D0
0000B0
005474
0BFFB8
3901BC
70002D
60000D
740005
1FAAFD
06BF90
000700
000740
0001A8
ENDCHAR
STARTCHAR Cacute
ENCODING 262
SWIDTH 515 0
DWIDTH 12 0
BBX 12 19 0 0
BITMAP
000280
000E00
002800
001540
002FD0
00F490
038080
0A0000
180000
200000
600000
600000
A00000
600000
700000
340000
280015
0FABFD
02FA40
ENDCHAR
STARTCHAR cacute
ENCODING 263
SWIDTH 449 0
DWIDTH 11 0
BBX 10 16 0 0
BITMAP
000A00
003800
00A000
004000
000000
01FD00
0A4740
280140
340000
700000
A00000
700000
740000
3C0000
1F9550
02BFE0
ENDCHAR
STARTCHAR Ccircumflex
ENCODING 264
SWIDTH 515 0
DWIDTH 12 0
BBX 12 22 0 0
BITMAP
000400
001D00
003F40
00B7C0
02C1D0
010040
000140
002FD0
00F490
038080
0A0000
180000
200000
600000
600000
A00000
600000
700000
340000
280015
0FABFD
02FA40
ENDCHAR
STARTCHAR ccircumflex
ENCODING 265
SWIDTH 449 0
DWIDTH 11 0
BBX 10 18 0 0
BITMAP
001000
007800
00BE00
02DF40
0B4380
000040
000000
01FD00
0A4740
280140
340000
700000
A00000
700000
740000
3C0000
1F9550
02BFE0
ENDCHAR
STARTCHAR Cdotaccent
ENCODING 266
SWIDTH 515 0
DWIDTH 12 0
BBX 12 19 0 0
BITMAP
001C00
000C00
000000
000140
002FD0
00F490
038080
0A0000
180000
200000
600000
600000
A00000
600000
700000
340000
280015
0FABFD
02FA40
ENDCHAR
STARTCHAR cdotaccent
ENCODING 267
SWIDTH 449 0
DWIDTH 11 0
BBX 10 13 0 0
BITMAP
007000
007000
01FD00
0A4740
280140
340000
700000
A00000
700000
740000
3C0000
1F9550
02BFE0
ENDCHAR
STARTCHAR Ccaron
ENCODING 268
SWIDTH 515 0
DWIDTH 12 0
BBX 12 20 0 0
BITMAP
005014
0029F0
000B80
000100
000140
002FD0
00F490
038080
0A0000
180000
200000
600000
600000
A00000
600000
700000
340000
280015
0FABFD
02FA40
ENDCHAR
STARTCHAR ccaron
ENCODING 269
SWIDTH 449 0
DWIDTH 11 0
BBX 10 15 0 0
BITMAP
050140
02DB40
007800
001000
01FD00
0A4740
280140
340000
700000
A00000
700000
740000
3C0000
1F9550
02BFE0
ENDCHAR
STARTCHAR Dcaron
ENCODING 270
SWIDTH 741 0
DWIDTH 18 0
BBX 17 20 0 -1
BITMAP
0005020000
0007AE0000
0000F40000
0000000000
1BFF900000
7957FD0000
000387D000
000280B800
0002801D00
0001C00B40
0001C00380
0000D001C0
0000D001C0
0000D001C0
0000E002C0
0000D00780
0000901F00
000E55B800
0007FFD000
0000140000
ENDCHAR
STARTCHAR dcaron
ENCODING 271
SWIDTH 582 0
DWIDTH 14 0
BBX 14 19 0 0
BITMAP
00000040
000000C0
000080D0
0000E0D0
0000B0A0
0000B4A0
00007800
00003800
07E42C00
1FFF6C00
3D02FD00
78007D00
70002D00
B0003E00
70007E00
7401FE00
3807CA00
1EBE0700
07E40000
ENDCHAR
STARTCHAR Dcroat
ENCODING 272
SWIDTH 741 0
DWIDTH 18 0
BBX 17 16 0 -1
BITMAP
1BFF900000
7957FD0000
000387D000
000280B800
0002801D00
0001C00B40
0001D00380
002FFC01C0
0025E401C0
0000D001C0
0000E002C0
0000D00780
0000901F00
000E55B800
0007FFD000
0000140000
ENDCHAR
STARTCHAR dcroat
ENCODING 273
SWIDTH 524 0
DWIDTH 13 0
BBX 13 18 0 0
BITMAP
00004000
0000D000
0000E000
0000B400
001FFF80
00297940
00003C00
06A42C00
1FFE2C00
2E06FD00
7800BD00
70002D00
B0003E00
70007E00
7401FE00
3807CA00
1EBE0700
07E40000
ENDCHAR
STARTCHAR Emacron
ENCODING 274
SWIDTH 524 0
DWIDTH 13 0
BBX 12 18 0 0
BITMAP
01BF80
03A580
000000
2AAAA4
7AAA58
700000
700000
700000
700154
7ABFE0
795400
700000
600000
600000
A00000
600000
7AAAFD
1BFFA4
ENDCHAR
STARTCHAR emacron
ENCODING 275
SWIDTH 515 0
DWIDTH 12 0
BBX 12 16 0 0
BITMAP
01BF80
03A580
000000
005400
07EE00
1E0340
280180
700180
700740
A56E00
77A000
700000
340000
1E0000
07EAA9
00AFE4
ENDCHAR
STARTCHAR Ebreve
ENCODING 276
SWIDTH 524 0
DWIDTH 13 0
BBX 12 19 0 0
BITMAP
004200
00AA00
001400
000000
2AAAA4
7AAA58
700000
700000
700000
700154
7ABFE0
795400
700000
600000
600000
A00000
600000
7AAAFD
1BFFA4
ENDCHAR
STARTCHAR ebreve
ENCODING 277
SWIDTH 515 0
DWIDTH 12 0
BBX 12 16 0 0
BITMAP
005080
003B40
000400
005400
07EE00
1E0340
280180
700180
700740
A56E00
77A000
700000
340000
1E0000
07EAA9
00AFE4
ENDCHAR
STARTCHAR Edotaccent
ENCODING 278
SWIDTH 524 0
DWIDTH 13 0
BBX 12 18 0 0
BITMAP
003800
002800
000000
2AAAA4
7AAA58
700000
700000
700000
700154
7ABFE0
795400
700000
600000
600000
A00000
600000
7AAAFD
1BFFA4
ENDCHAR
STARTCHAR edotaccent
ENCODING 279
SWIDTH 515 0
DWIDTH 12 0
BBX 12 16 0 0
BITMAP
007000
007000
000000
005400
07EE00
1E0340
280180
700180
700740
A56E00
77A000
700000
340000
1E0000
07EAA9
00AFE4
ENDCHAR
STARTCHAR Eogonek
ENCODING 280
SWIDTH 524 0
DWIDTH 13 0
BBX 12 19 0 -4
BITMAP
2AAAA4
7AAA58
700000
700000
700000
700154
7ABFE0
795400
700000
600000
600000
A00000
600000
7AAAFD
1BFFE4
000740
000A00
000794
000054
ENDCHAR
STARTCHAR eogonek
ENCODING 281
SWIDTH 515 0
DWIDTH 12 0
BBX 12 17 0 -4
BITMAP
005400
07EE00
1E0340
280180
700180
700740
A56E00
77A000
700000
340000
1E0000
07EAA9
00AFE4
000A00
000D00
000B94
000050
ENDCHAR
STARTCHAR Ecaron
ENCODING 282
SWIDTH 524 0
DWIDTH 13 0
BBX 12 19 0 0
BITMAP
014050
00A7D0
001E00
000400
2AAAA4
7AAA58
700000
700000
700000
700154
7ABFE0
795400
700000
600000
600000
A00000
600000
7AAAFD
1BFFA4
ENDCHAR
STARTCHAR ecaron
ENCODING 283
SWIDTH 515 0
DWIDTH 12 0
BBX 12 17 0 0
BITMAP
014050
01A7C0
002E00
000400
005400
07EE00
1E0340
280180
700180
700740
A56E00
77A000
700000
340000
1E0000
07EAA9
00AFE4
ENDCHAR
STARTCHAR Gcircumflex
ENCODING 284
SWIDTH 571 0
DWIDTH 14 0
BBX 14 21 0 -2
BITMAP
00005000
0000B000
0001FC00
0007AE00
001E0B00
00040100
00005900
0007FF40
00790000
01D00000
0B000000
1D000000
280EAF40
30055780
70000280
30000280
28000B80
0FAABF80
02A94280
000002D0
00000080
ENDCHAR
STARTCHAR gcircumflex
ENCODING 285
SWIDTH 366 0
DWIDTH 9 0
BBX 12 30 -3 -12
BITMAP
000100
000780
000BE0
002DF4
00B438
000004
000000
000000
0006D0
001EB4
007428
00D01C
01C01D
01C02D
02C02D
01E0BD
007FEE
00151E
00000E
00000A
00000A
00000A
00000A
80000A
C0000A
D0000E
78001D
1F902C
02FFF4
001A90
ENDCHAR
STARTCHAR Gbreve
ENCODING 286
SWIDTH 571 0
DWIDTH 14 0
BBX 14 18 0 -2
BITMAP
0050C000
003B8000
00050000
00005900
0007FF40
00790000
01D00000
0B000000
1D000000
280EAF40
30055780
70000280
30000280
28000B80
0FAABF80
02A94280
000002D0
00000080
ENDCHAR
STARTCHAR gbreve
ENCODING 287
SWIDTH 366 0
DWIDTH 9 0
BBX 12 25 -3 -12
BITMAP
002050
001AC0
000500
0006D0
001EB4
007428
00D01C
01C01D
01C02D
02C02D
01E0BD
007FEE
00151E
00000E
00000A
00000A
00000A
00000A
80000A
C0000A
D0000E
78001D
1F902C
02FFF4
001A90
ENDCHAR
STARTCHAR Gdotaccent
ENCODING 288
SWIDTH 571 0
DWIDTH 14 0
BBX 14 17 0 -2
BITMAP
0001C000
0001C000
00005900
0007FF40
00790000
01D00000
0B000000
1D000000
280EAF40
30055780
70000280
30000280
28000B80
0FAABF80
02A94280
000002D0
00000080
ENDCHAR
STARTCHAR gdotaccent
ENCODING 289
SWIDTH 366 0
DWIDTH 9 0
BBX 12 25 -3 -12
BITMAP
000700
000700
000000
0006D0
001EB4
007428
00D01C
01C01D
01C02D
02C02D
01E0BD
007FEE
00151E
00000E
00000A
00000A
00000A
00000A
80000A
C0000A
D0000E
78001D
1F902C
02FFF4
001A90
ENDCHAR
STARTCHAR Gcommaaccent
ENCODING 290
SWIDTH 571 0
DWIDTH 14 0
BBX 14 21 0 -8
BITMAP
00005900
0007FF40
00790000
01D00000
0B000000
1D000000
280EAF40
30055780
70000280
30000280
28000B80
0FAABF80
02A94280
000002D0
00000080
00040000
000E0000
000A0000
000A0000
000D0000
00080000
ENDCHAR
STARTCHAR gcommaaccent
ENCODING 291
SWIDTH 366 0
DWIDTH 9 0
BBX 12 33 -3 -12
BITMAP
000600
000700
000700
000340
000340
000000
000000
000000
000000
000000
000000
0006D0
001EB4
007428
00D01C
01C01D
01C02D
02C02D
01E0BD
007FEE
00151E
00000E
00000A
00000A
00000A
00000A
80000A
C0000A
D0000E
78001D
1F902C
02FFF4
001A90
ENDCHAR
STARTCHAR Hcircumflex
ENCODING 292
SWIDTH 524 0
DWIDTH 13 0
BBX 12 23 0 0
BITMAP
000400
001D00
003F40
00B7C0
02C1D0
010040
000000
10000C
30000C
30000C
30000C
34001C
34001C
24006C
2807EC
287E0C
2FE00D
7D000D
1C000D
0C000D
0D000A
0D000A
080006
ENDCHAR
STARTCHAR hcircumflex
ENCODING 293
SWIDTH 427 0
DWIDTH 10 0
BBX 11 20 -1 0
BITMAP
000400
001E00
002F80
60B7D0
72D0E0
340010
280000
1C0000
1C0000
0DA900
0FFF80
0E01C0
0900A0
0A0070
0A0030
0A0034
070034
070074
070074
030070
ENDCHAR
STARTCHAR hbar
ENCODING 295
SWIDTH 427 0
DWIDTH 10 0
BBX 12 17 -2 0
BITMAP
180000
1C0000
0D0000
1E5000
BFF400
571000
036A40
03FFE0
038070
024028
02801C
02800C
02800D
01C00D
01C01D
01C01D
00C01C
ENDCHAR
STARTCHAR Itilde
ENCODING 296
SWIDTH 167 0
DWIDTH 4 0
BBX 9 17 -2 0
BITMAP
6D0240
92ED00
C06400
440000
090000
060000
070000
034000
028000
028000
01C000
01C000
00D000
00D000
00D000
00A000
006000
ENDCHAR
STARTCHAR itilde
ENCODING 297
SWIDTH 174 0
DWIDTH 4 0
BBX 9 16 -2 0
BITMAP
1A0080
35E740
702D00
100000
000000
014000
028000
028000
028000
01C000
01C000
01D000
01E000
00E000
00E000
00A000
ENDCHAR
STARTCHAR imacron
ENCODING 299
SWIDTH 174 0
DWIDTH 4 0
BBX 6 15 -1 0
BITMAP
1550
FFF0
5000
0000
0500
0A00
0A00
0A00
0700
0700
0740
0780
0380
0380
0280
ENDCHAR
STARTCHAR Ibreve
ENCODING 300
SWIDTH 167 0
DWIDTH 4 0
BBX 5 18 0 0
BITMAP
8240
AB00
1400
0000
4000
9000
6000
7000
3400
2800
2800
1C00
1C00
0D00
0D00
0D00
0A00
0600
ENDCHAR
STARTCHAR ibreve
ENCODING 301
SWIDTH 174 0
DWIDTH 4 0
BBX 5 15 -1 0
BITMAP
0040
6580
1A00
0000
0500
0A00
0A00
0A00
0700
0700
0740
0780
0380
0380
0280
ENDCHAR
STARTCHAR Iogonek
ENCODING 302
SWIDTH 167 0
DWIDTH 4 0
BBX 5 18 0 -4
BITMAP
4000
9000
6000
7000
3400
2800
2800
1C00
1C00
0D00
0D00
0D00
0E00
2E00
A000
D000
B940
1540
ENDCHAR
STARTCHAR iogonek
ENCODING 303
SWIDTH 174 0
DWIDTH 4 0
BBX 5 19 -1 -4
BITMAP
1000
2800
0000
0000
0500
0A00
0A00
0A00
0700
0700
0740
0780
0380
0380
1B80
3800
7000
3940
0540
ENDCHAR
STARTCHAR Idotaccent
ENCODING 304
SWIDTH 167 0
DWIDTH 4 0
BBX 5 17 -1 0
BITMAP
7400
3400
0000
1000
2400
1800
1C00
0D00
0A00
0A00
0700
0700
0340
0340
0340
0280
0180
ENDCHAR
STARTCHAR dotlessi
ENCODING 305
SWIDTH 174 0
DWIDTH 4 0
BBX 3 11 1 0
BITMAP
50
A0
A0
A0
70
70
74
78
38
38
28
ENDCHAR
STARTCHAR Jcircumflex
ENCODING 308
SWIDTH 439 0
DWIDTH 11 0
BBX 11 24 0 0
BITMAP
000140
0002D0
0007F0
001EB8
00782C
001004
000000
000140
000180
0001C0
0000D0
0000D0
0000A0
0000A0
0000B0
100070
600070
700070
240070
0D0070
070070
01D0A0
0079D0
000B80
ENDCHAR
STARTCHAR jcircumflex
ENCODING 309
SWIDTH 200 0
DWIDTH 5 0
BBX 9 29 -3 -11
BITMAP
001000
007800
00BE00
02DF40
0B4380
000040
000000
000000
001000
003000
003400
002800
002C00
001D00
001D00
000E00
000E00
000B00
000B00
000700
400740
A00340
700340
380340
2C0340
0E0340
079700
00FF00
001900
ENDCHAR
STARTCHAR Kcommaaccent
ENCODING 310
SWIDTH 468 0
DWIDTH 11 0
BBX 11 22 0 -8
BITMAP
500700
602D00
607400
71D000
338000
3E0000
3C0000
3D0000
3F4000
36D000
34B800
281F40
2802E0
180078
000000
000000
002000
007400
003400
003400
007400
005000
ENDCHAR
STARTCHAR kcommaaccent
ENCODING 311
SWIDTH 403 0
DWIDTH 10 0
BBX 10 23 0 -8
BITMAP
400000
C00000
900000
A00000
700900
702C00
347000
35C000
2F4000
2E0000
2D0000
2F0000
2FE000
287F90
240A90
000000
000000
004000
00E000
00A000
00A000
01D000
008000
ENDCHAR
STARTCHAR Lacute
ENCODING 313
SWIDTH 346 0
DWIDTH 8 0
BBX 8 17 0 0
BITMAP
001C
00B4
01D0
0140
1400
2400
3400
3400
7400
7000
7000
7000
A000
A000
7000
3EA5
0BFE
ENDCHAR
STARTCHAR lacute
ENCODING 314
SWIDTH 120 0
DWIDTH 3 0
BBX 5 18 -1 0
BITMAP
0740
1D00
7400
1000
1800
1C00
1C00
1C00
1C00
1D00
1D00
1D00
1D00
1D00
1D00
1D00
0C00
0C00
ENDCHAR
STARTCHAR Lcommaaccent
ENCODING 315
SWIDTH 346 0
DWIDTH 8 0
BBX 8 21 0 -8
BITMAP
1400
2400
3400
3400
7400
7000
7000
7000
A000
A000
7000
3EA5
0BFE
0000
0000
0140
02C0
01C0
01C0
0380
0100
ENDCHAR
STARTCHAR lcommaaccent
ENCODING 316
SWIDTH 120 0
DWIDTH 3 0
BBX 3 22 0 -8
BITMAP
60
70
70
70
70
74
74
74
74
74
74
74
30
30
00
00
10
74
34
34
B0
50
ENDCHAR
STARTCHAR Lcaron
ENCODING 317
SWIDTH 346 0
DWIDTH 8 0
BBX 8 18 0 0
BITMAP
0040
00D0
00D0
00A0
00A0
1460
2400
3400
3400
7400
7000
7000
7000
A000
A000
7000
3EA5
0BFE
ENDCHAR
STARTCHAR lcaron
ENCODING 318
SWIDTH 222 0
DWIDTH 5 0
BBX 5 18 0 0
BITMAP
0100
0240
0280
02C0
61C0
71C0
7040
7000
7000
7400
7400
7400
7400
7400
7400
7400
3000
3000
ENDCHAR
STARTCHAR Ldot
ENCODING 319
SWIDTH 346 0
DWIDTH 8 0
BBX 8 13 0 0
BITMAP
1400
2400
3400
3400
7400
7000
72D0
77E0
A280
A000
7000
3EA5
0BFE
ENDCHAR
STARTCHAR ldot
ENCODING 320
SWIDTH 333 0
DWIDTH 8 0
BBX 7 14 0 0
BITMAP
6000
7000
7000
7000
7000
7400
7400
7474
74FC
7464
7400
7400
3000
3000
ENDCHAR
STARTCHAR Lslash
ENCODING 321
SWIDTH 346 0
DWIDTH 8 0
BBX 9 13 0 0
BITMAP
050000
0A0000
0D0000
0D0000
1D0000
1C0000
1E8000
2F4000
BC0000
6C0000
1D0000
0BFA80
01AA80
ENDCHAR
STARTCHAR lslash
ENCODING 322
SWIDTH 120 0
DWIDTH 3 0
BBX 6 14 -2 0
BITMAP
0300
0340
0340
0340
0350
03F0
07D0
2F40
A740
0340
0340
0340
0340
0100
ENDCHAR
STARTCHAR Nacute
ENCODING 323
SWIDTH 609 0
DWIDTH 15 0
BBX 14 17 0 0
BITMAP
00028000
000E0000
00380000
00100000
20000000
34000A00
38000B40
3C000780
3D0002C0
3E0000D0
3F0000A0
32800070
71D00070
70B400A0
742D01D0
740BEF80
3001A900
ENDCHAR
STARTCHAR nacute
ENCODING 324
SWIDTH 459 0
DWIDTH 11 0
BBX 11 16 0 0
BITMAP
002800
01E000
038000
010000
000000
00BD00
6B9B40
7D02C0
7800E0
7400B0
740074
340034
380038
2C0038
1C0034
080034
ENDCHAR
STARTCHAR Ncommaaccent
ENCODING 325
SWIDTH 609 0
DWIDTH 15 0
BBX 14 21 0 -8
BITMAP
20000000
34000A00
38000B40
3C000780
3D0002C0
3E0000D0
3F0000A0
32800070
71D00070
70B400A0
742D01D0
740BEF80
3001A900
00000000
00000000
00050000
000B0000
00070000
00070000
000B0000
00050000
ENDCHAR
STARTCHAR ncommaaccent
ENCODING 326
SWIDTH 459 0
DWIDTH 11 0
BBX 11 19 0 -8
BITMAP
00BD00
6B9B40
7D02C0
7800E0
7400B0
740074
340034
380038
2C0038
1C0034
080034
000000
000000
001000
007400
003400
003400
00B000
005000
ENDCHAR
STARTCHAR Ncaron
ENCODING 327
SWIDTH 609 0
DWIDTH 15 0
BBX 14 19 0 0
BITMAP
00501400
002DF400
00078000
00010000
00000000
00000000
20000000
34000A00
38000B40
3C000780
3D0002C0
3E0000D0
3F0000A0
32800070
71D00070
70B400A0
742D01D0
740BEF80
3001A900
ENDCHAR
STARTCHAR ncaron
ENCODING 328
SWIDTH 459 0
DWIDTH 11 0
BBX 11 15 0 0
BITMAP
050140
02DB40
007900
001000
00BD00
6B9B40
7D02C0
7800E0
7400B0
740074
340034
380038
2C0038
1C0034
080034
ENDCHAR
STARTCHAR napostrophe
ENCODING 329
SWIDTH 459 0
DWIDTH 11 0
BBX 11 17 0 0
BITMAP
050000
0E0000
0B0000
0A0000
0E0000
080000
00BD00
6B9B40
7D02C0
7800E0
7400B0
740074
340034
380038
2C0038
1C0034
080034
ENDCHAR
STARTCHAR Omacron
ENCODING 332
SWIDTH 609 0
DWIDTH 15 0
BBX 14 17 0 0
BITMAP
006FE000
00A96400
00000000
00000000
00000000
01A40000
0BBF8000
2801F800
70001E00
60000780
A00001D0
600000A0
70000070
380000B0
1E4001D0
07E56F40
00BFA400
ENDCHAR
STARTCHAR omacron
ENCODING 333
SWIDTH 487 0
DWIDTH 12 0
BBX 11 13 0 0
BITMAP
02BF80
079680
000000
01BF40
0BABE0
2C00B4
700028
60001C
A0001C
700038
3801F4
1E5BD0
06FE40
ENDCHAR
STARTCHAR Obreve
ENCODING 334
SWIDTH 609 0
DWIDTH 15 0
BBX 14 16 0 0
BITMAP
00209000
001AC000
00050000
00000000
01A40000
0BBF8000
2801F800
70001E00
60000780
A00001D0
600000A0
70000070
380000B0
1E4001D0
07E56F40
00BFA400
ENDCHAR
STARTCHAR obreve
ENCODING 335
SWIDTH 487 0
DWIDTH 12 0
BBX 11 14 0 0
BITMAP
020900
02A800
005000
000000
01BF40
0BABE0
2C00B4
700028
60001C
A0001C
700038
3801F4
1E5BD0
06FE40
ENDCHAR
STARTCHAR Ohungarumlaut
ENCODING 336
SWIDTH 609 0
DWIDTH 15 0
BBX 14 18 0 0
BITMAP
00040000
0038A000
00A38000
00420000
00000000
00000000
01A40000
0BBF8000
2801F800
70001E00
60000780
A00001D0
600000A0
70000070
380000B0
1E4001D0
07E56F40
00BFA400
ENDCHAR
STARTCHAR ohungarumlaut
ENCODING 337
SWIDTH 487 0
DWIDTH 12 0
BBX 11 14 0 0
BITMAP
005000
01D700
035D00
011400
01BF40
0BABE0
2C00B4
700028
60001C
A0001C
700038
3801F4
1E5BD0
06FE40
ENDCHAR
STARTCHAR OE
ENCODING 338
SWIDTH 848 0
DWIDTH 20 0
BBX 20 12 0 0
BITMAP
01A4055550
0BAF6EAAA9
2807F80000
7001F80000
6000B80014
A0007EAFE4
6000394000
7000340000
2800740000
1E40B40000
07E5F95569
006F9BFFE9
ENDCHAR
STARTCHAR oe
ENCODING 339
SWIDTH 875 0
DWIDTH 21 0
BBX 21 13 0 -1
BITMAP
000000190000
000001EB8000
01AE4740E000
0BABED006000
2D00BC00A000
70002802D000
60002D6F4000
A0002DA40000
70003C000000
3801FE000000
1E5BD7900000
06FE41FEAA40
0000001AA400
ENDCHAR
STARTCHAR Racute
ENCODING 340
SWIDTH 579 0
DWIDTH 14 0
BBX 14 20 -1 -1
BITMAP
00002400
0001E000
00034000
00010000
0AFFE400
2E55AE40
700007C0
108000D0
00C000E0
00D01BD0
00EAFE00
00FE9000
00B40000
00BC0000
006B0000
00328000
0034B400
00241D00
00140790
000000B0
ENDCHAR
STARTCHAR racute
ENCODING 341
SWIDTH 346 0
DWIDTH 8 0
BBX 8 16 0 0
BITMAP
0064
01E0
0340
0100
0000
02A8
6EAF
B400
7000
7000
7000
3400
2800
1C00
0D00
0900
ENDCHAR
STARTCHAR Rcommaaccent
ENCODING 342
SWIDTH 579 0
DWIDTH 14 0
BBX 14 23 -1 -8
BITMAP
0AFFE400
2E55AE40
700007C0
108000D0
00C000E0
00D01BD0
00EAFE00
00FE9000
00B40000
00BC0000
006B0000
00328000
0034B400
00241D00
00140790
000000B0
00000000
00014000
00038000
0001C000
0002C000
00038000
00010000
ENDCHAR
STARTCHAR rcommaaccent
ENCODING 343
SWIDTH 346 0
DWIDTH 8 0
BBX 8 19 0 -8
BITMAP
02A8
6EAF
B400
7000
7000
7000
3400
2800
1C00
0D00
0900
0000
0000
0140
02C0
01C0
01C0
0380
0100
ENDCHAR
STARTCHAR Rcaron
ENCODING 344
SWIDTH 579 0
DWIDTH 14 0
BBX 14 21 -1 -1
BITMAP
00140800
001EB800
0003D000
00000000
00000000
0AFFE400
2E55AE40
700007C0
108000D0
00C000E0
00D01BD0
00EAFE00
00FE9000
00B40000
00BC0000
006B0000
00328000
0034B400
00241D00
00140790
000000B0
ENDCHAR
STARTCHAR rcaron
ENCODING 345
SWIDTH 346 0
DWIDTH 8 0
BBX 8 15 0 0
BITMAP
1405
0A7C
02E0
0040
02A8
6EAF
B400
7000
7000
7000
3400
2800
1C00
0D00
0900
ENDCHAR
STARTCHAR Sacute
ENCODING 346
SWIDTH 627 0
DWIDTH 15 0
BBX 15 19 0 0
BITMAP
0001D000
00074000
001D0000
00040000
00055000
00BEBE00
028007C0
02400040
02800000
00E00000
002D0000
0007E000
00007E00
10000780
700000B0
74000034
2D000074
079555E0
006FFE80
ENDCHAR
STARTCHAR sacute
ENCODING 347
SWIDTH 514 0
DWIDTH 12 0
BBX 12 16 0 0
BITMAP
000240
001E00
003800
001000
000000
06F900
2E5B00
340240
340200
1E5000
02BFE0
00006D
00000E
74000E
2E557D
06BFE4
ENDCHAR
STARTCHAR Scircumflex
ENCODING 348
SWIDTH 627 0
DWIDTH 15 0
BBX 15 22 0 0
BITMAP
00010000
00038000
000BE000
001DB400
00743800
00100400
00000000
00055000
00BEBE00
028007C0
02400040
02800000
00E00000
002D0000
0007E000
00007E00
10000780
700000B0
74000034
2D000074
079555E0
006FFE80
ENDCHAR
STARTCHAR scircumflex
ENCODING 349
SWIDTH 514 0
DWIDTH 12 0
BBX 12 18 0 0
BITMAP
000400
001D00
003F40
00B7C0
03C1D0
010040
000000
06F900
2E5B00
340240
340200
1E5000
02BFE0
00006D
00000E
74000E
2E557D
06BFE4
ENDCHAR
STARTCHAR Scedilla
ENCODING 350
SWIDTH 627 0
DWIDTH 15 0
BBX 15 23 0 -8
BITMAP
00055000
00BEBE00
028007C0
02400040
02800000
00E00000
002D0000
0007E000
00007E00
10000780
700000B0
74000034
2D000074
079555E0
007FFE80
00700000
00300000
002E4000
0001B400
00002800
00742800
001EA000
00014000
ENDCHAR
STARTCHAR scedilla
ENCODING 351
SWIDTH 514 0
DWIDTH 12 0
BBX 12 19 0 -8
BITMAP
06F900
2E5B00
340240
340200
1E5000
02BFE0
00006D
00000E
74000E
2E557D
06FFE4
028000
018000
00A900
001680
0000D0
0280D0
00BA80
001400
ENDCHAR
STARTCHAR Scaron
ENCODING 352
SWIDTH 627 0
DWIDTH 15 0
BBX 15 19 0 0
BITMAP
00501400
002DB400
00079000
00010000
00055000
00BEBE00
028007C0
02400040
02800000
00E00000
002D0000
0007E000
00007E00
10000780
700000B0
74000034
2D000074
079555E0
006FFE80
ENDCHAR
STARTCHAR scaron
ENCODING 353
SWIDTH 514 0
DWIDTH 12 0
BBX 12 15 0 0
BITMAP
014050
01A7C0
002E00
000400
06F900
2E5B00
340240
340200
1E5000
02BFE0
00006D
00000E
74000E
2E557D
06BFE4
ENDCHAR
STARTCHAR Tcommaaccent
ENCODING 354
SWIDTH 581 0
DWIDTH 14 0
BBX 16 22 0 -7
BITMAP
55540000
6FFFFFA4
001695BF
00028000
00018000
0001C000
0001C000
0001C000
0000D000
0000D000
0000E000
0000A000
0000B000
00007400
00003800
00000000
00001000
00007400
00003400
00003400
0000B000
00005000
ENDCHAR
STARTCHAR tcommaaccent
ENCODING 355
SWIDTH 328 0
DWIDTH 8 0
BBX 8 23 0 -8
BITMAP
0340
0340
0380
0380
0380
BFFE
1BD4
0380
0380
0380
0380
0280
0280
01C0
0080
0000
0000
0140
0380
0280
0280
0340
0200
ENDCHAR
STARTCHAR Tcaron
ENCODING 356
SWIDTH 581 0
DWIDTH 14 0
BBX 16 19 0 0
BITMAP
00502000
006AE000
000B4000
00000000
55540000
6FFFFFA4
001695BF
00028000
00018000
0001C000
0001C000
0001C000
0000D000
0000D000
0000E000
0000A000
0000B000
00007400
00003800
ENDCHAR
STARTCHAR tcaron
ENCODING 357
SWIDTH 431 0
DWIDTH 10 0
BBX 10 18 0 0
BITMAP
000040
000090
0000A0
0340B0
034070
038070
038010
038000
BFFE00
1BD400
038000
038000
038000
038000
028000
028000
01C000
008000
ENDCHAR
STARTCHAR Utilde
ENCODING 360
SWIDTH 571 0
DWIDTH 14 0
BBX 14 17 0 0
BITMAP
01F41C00
034BB400
03019000
01000000
28000800
30001C00
60001D00
60001D00
60000D00
70000D00
30000A00
34000700
28000B40
1C001F80
0E00BBC0
07EBD1D0
01BD0040
ENDCHAR
STARTCHAR utilde
ENCODING 361
SWIDTH 501 0
DWIDTH 12 0
BBX 12 16 0 0
BITMAP
02E024
0A1EE0
090240
000000
100000
600000
A00060
A00070
A00074
700074
3400B4
2800F4
1D02F8
0B9E1C
01F80D
000005
ENDCHAR
STARTCHAR Umacron
ENCODING 362
SWIDTH 571 0
DWIDTH 14 0
BBX 14 17 0 0
BITMAP
00AFE000
00E5A000
00000000
00000000
28000800
30001C00
60001D00
60001D00
60000D00
70000D00
30000A00
34000700
28000B40
1C001F80
0E00BBC0
07EBD1D0
01BD0040
ENDCHAR
STARTCHAR umacron
ENCODING 363
SWIDTH 501 0
DWIDTH 12 0
BBX 12 14 0 0
BITMAP
02FF40
0A9640
100000
600000
A00060
A00070
A00074
700074
3400B4
2800F4
1D02F8
0B9E1C
01F80D
000005
ENDCHAR
STARTCHAR Ubreve
ENCODING 364
SWIDTH 571 0
DWIDTH 14 0
BBX 14 16 0 0
BITMAP
0050C000
003B8000
00050000
28000800
30001C00
60001D00
60001D00
60000D00
70000D00
30000A00
34000700
28000B40
1C001F80
0E00BBC0
07EBD1D0
01BD0040
ENDCHAR
STARTCHAR ubreve
ENCODING 365
SWIDTH 501 0
DWIDTH 12 0
BBX 12 14 0 0
BITMAP
020900
01AC00
105000
600000
A00060
A00070
A00074
700074
3400B4
2800F4
1D02F8
0B9E1C
01F80D
000005
ENDCHAR
STARTCHAR Uring
ENCODING 366
SWIDTH 571 0
DWIDTH 14 0
BBX 14 18 0 0
BITMAP
001A0000
00668000
00908000
00664000
00040000
28000800
30001C00
60001D00
60001D00
60000D00
70000D00
30000A00
34000700
28000B40
1C001F80
0E00BBC0
07EBD1D0
01BD0040
ENDCHAR
STARTCHAR uring
ENCODING 367
SWIDTH 501 0
DWIDTH 12 0
BBX 12 14 0 0
BITMAP
006800
009600
114300
609900
A01060
A00070
A00074
700074
3400B4
2800F4
1D02F8
0B9E1C
01F80D
000005
ENDCHAR
STARTCHAR Uhungarumlaut
ENCODING 368
SWIDTH 571 0
DWIDTH 14 0
BBX 14 18 0 0
BITMAP
00140000
0075C000
00D74000
00450000
00000000
28000800
30001C00
60001D00
60001D00
60000D00
70000D00
30000A00
34000700
28000B40
1C001F80
0E00BBC0
07EBD1D0
01BD0040
ENDCHAR
STARTCHAR uhungarumlaut
ENCODING 369
SWIDTH 501 0
DWIDTH 12 0
BBX 12 17 0 0
BITMAP
001400
0075D0
00D740
004500
000000
100000
600000
A00060
A00070
A00074
700074
3400B4
2800F4
1D02F8
0B9E1C
01F80D
000005
ENDCHAR
STARTCHAR Uogonek
ENCODING 370
SWIDTH 571 0
DWIDTH 14 0
BBX 14 16 1 -4
BITMAP
70002000
90003400
C0003400
C0003800
C0002800
D0002800
D0001C00
A0001D00
60001E00
34003F00
2C01EB40
0FAB4780
02F82D40
00007000
00007400
00001A90
ENDCHAR
STARTCHAR uogonek
ENCODING 371
SWIDTH 501 0
DWIDTH 12 0
BBX 13 15 0 -3
BITMAP
10000000
60000000
A0006000
A0007000
A0007000
70007400
3400B400
2800F400
1D02F800
0B5B1C00
02F80D00
00007A00
0000D000
0001D000
0000BA40
ENDCHAR
STARTCHAR Wcircumflex
ENCODING 372
SWIDTH 703 0
DWIDTH 17 0
BBX 17 22 0 0
BITMAP
0000400000
0001E00000
0002F80000
000B7D0000
002D0E0000
0000010000
0000000000
0000000000
0000000000
0000000000
5000001400
A000002C00
A000001D00
A000000E00
A001000B00
B007000700
7007400340
7407800340
340BC00340
2C2DB00B00
0FF42EBD00
06900BE000
ENDCHAR
STARTCHAR wcircumflex
ENCODING 373
SWIDTH 656 0
DWIDTH 16 0
BBX 15 18 0 0
BITMAP
00014000
0002D000
0007F000
001EB800
00782C00
00100400
00000000
00000000
20000000
70000050
A0014070
A0028028
A002801C
A002C01C
7003D01C
280BE03C
0EBD7EF4
02E40A90
ENDCHAR
STARTCHAR Ycircumflex
ENCODING 374
SWIDTH 403 0
DWIDTH 10 0
BBX 10 23 0 -1
BITMAP
005000
00B000
01FC00
07AE00
1E0B00
040100
400000
A00040
7000D0
3801C0
1E02C0
079380
00BF40
001E00
000D00
001C00
002800
003400
003400
007000
007000
007000
001000
ENDCHAR
STARTCHAR ycircumflex
ENCODING 375
SWIDTH 487 0
DWIDTH 12 0
BBX 12 30 0 -12
BITMAP
001400
002D00
007F00
01EB80
0782C0
010040
000000
000010
900020
A00024
A00028
700028
34002C
28002C
1C007C
0A01FC
02EF4D
006409
000009
000009
00000D
00000D
00000C
00001C
10001C
340028
2D0034
0B80B0
01FBD0
001A40
ENDCHAR
STARTCHAR Ydieresis
ENCODING 376
SWIDTH 403 0
DWIDTH 10 0
BBX 10 20 0 -1
BITMAP
050500
0F5F00
060900
400000
A00040
7000D0
3801C0
1E02C0
079380
00BF40
001E00
000D00
001C00
002800
003400
003400
007000
007000
007000
001000
ENDCHAR
STARTCHAR Zacute
ENCODING 377
SWIDTH 571 0
DWIDTH 14 0
BBX 14 20 0 0
BITMAP
00028000
000B0000
00280000
00100000
00000000
1BA80000
B95B4000
0001D000
0000A000
0000A000
00009000
0001D000
01AFFF40
07AF9500
000A0000
001C0000
00340000
00A00140
00E5BFD0
007FE900
ENDCHAR
STARTCHAR zacute
ENCODING 378
SWIDTH 459 0
DWIDTH 11 0
BBX 11 17 0 0
BITMAP
001800
00B400
02C000
010000
015000
2FFD00
740700
000700
000700
000E00
16AF80
2FF940
01D000
038000
0B0020
0FABF4
06FE40
ENDCHAR
STARTCHAR Zdotaccent
ENCODING 379
SWIDTH 571 0
DWIDTH 14 0
BBX 14 18 0 0
BITMAP
00340000
00240000
00000000
1BA80000
B95B4000
0001D000
0000A000
0000A000
00009000
0001D000
01AFFF40
07AF9500
000A0000
001C0000
00340000
00A00140
00E5BFD0
007FE900
ENDCHAR
STARTCHAR zdotaccent
ENCODING 380
SWIDTH 459 0
DWIDTH 11 0
BBX 11 16 0 0
BITMAP
003400
002400
000000
015000
2FFD00
740700
000700
000700
000E00
16AF80
2FF940
01D000
038000
0B0020
0FABF4
06FE40
ENDCHAR
STARTCHAR Zcaron
ENCODING 381
SWIDTH 571 0
DWIDTH 14 0
BBX 14 19 0 0
BITMAP
01408000
01AB8000
002D0000
00000000
1BA80000
B95B4000
0001D000
0000A000
0000A000
00009000
0001D000
01AFFF40
07AF9500
000A0000
001C0000
00340000
00A00140
00E5BFD0
007FE900
ENDCHAR
STARTCHAR zcaron
ENCODING 382
SWIDTH 459 0
DWIDTH 11 0
BBX 11 17 0 0
BITMAP
140500
0B6D00
01E400
004000
015000
2FFD00
740700
000700
000700
000E00
16AF80
2FF940
01D000
038000
0B0020
0FABF4
06FE40
ENDCHAR
STARTCHAR florin
ENCODING 402
SWIDTH 376 0
DWIDTH 9 0
BBX 13 24 -2 -7
BITMAP
0006E400
001F6E00
00280780
00740180
00700000
00A00000
00A00000
00A00000
00A00000
06FA9000
0EBAA400
00700000
00700000
00700000
00700000
00700000
00700000
00700000
00700000
D0B00000
B4A00000
2DA00000
07E00000
00400000
ENDCHAR
STARTCHAR AEacute
ENCODING 508
SWIDTH 960 0
DWIDTH 23 0
BBX 23 21 0 0
BITMAP
000000240000
000001E00000
000403800000
01FF81000000
0741E0000000
090034000000
0C001CFEAA90
18000DEA9560
24000AD00000
240007D00000
240003D00000
240003D00590
340003EAFE80
7FFEABE54000
380056C00000
240002C00000
280002C00000
280002C00000
2C0002C00000
1C0003EAAFF4
0C0003AFFE90
ENDCHAR
STARTCHAR aeacute
ENCODING 509
SWIDTH 881 0
DWIDTH 21 0
BBX 21 18 0 -1
BITMAP
000001C00000
00000B400000
00001D000000
000010000000
000000000000
00B8006A4000
019B41E6D000
0002D740B000
0000BA007000
00547C00B000
0BFFBC06D000
3901BEBE4000
70002D540000
60000D000000
740007000000
1FAAFFE40000
06BF907FFF40
000000059400
ENDCHAR
STARTCHAR Oslashacute
ENCODING 510
SWIDTH 609 0
DWIDTH 15 0
BBX 14 19 0 -2
BITMAP
00014000
000B4000
002D0000
00240000
00001000
01A47000
0BBFA000
2801F800
7000DE00
60018780
A00341D0
600700A0
700A0070
380D00B0
1E5C01D0
07F96F40
00BFA400
00A00000
00C00000
ENDCHAR
STARTCHAR oslashacute
ENCODING 511
SWIDTH 487 0
DWIDTH 12 0
BBX 11 15 0 0
BITMAP
000100
000A00
007800
00A000
000000
01AE74
0BABF0
2D01F4
7003A8
600B1C
A01D1C
707838
38E1F4
1FDBD0
07FE40
ENDCHAR
STARTCHAR Scommaaccent
ENCODING 536
SWIDTH 627 0
DWIDTH 15 0
BBX 15 23 0 -8
BITMAP
00055000
00BEBE00
028007C0
02400040
02800000
00E00000
002D0000
0007E000
00007E00
10000780
700000B0
74000034
2D000074
079555E0
006FFE80
00000000
00000000
00050000
000E0000
00070000
000B0000
000E0000
00040000
ENDCHAR
STARTCHAR scommaaccent
ENCODING 537
SWIDTH 514 0
DWIDTH 12 0
BBX 12 19 0 -8
BITMAP
06F900
2E5B00
340240
340200
1E5000
02BFE0
00006D
00000E
74000E
2E557D
06BFE4
000000
000000
001400
002C00
001C00
001C00
003800
001000
ENDCHAR
STARTCHAR circumflex
ENCODING 710
SWIDTH 375 0
DWIDTH 9 0
BBX 7 6 1 12
BITMAP
0100
0780
0BE0
2DF4
B438
0004
ENDCHAR
STARTCHAR caron
ENCODING 711
SWIDTH 375 0
DWIDTH 9 0
BBX 7 4 1 11
BITMAP
5014
2DB4
0780
0100
ENDCHAR
STARTCHAR breve
ENCODING 728
SWIDTH 224 0
DWIDTH 5 0
BBX 5 3 0 9
BITMAP
50C0
3B40
0400
ENDCHAR
STARTCHAR dotaccent
ENCODING 729
SWIDTH 152 0
DWIDTH 4 0
BBX 2 2 1 11
BITMAP
A0
A0
ENDCHAR
STARTCHAR ring
ENCODING 730
SWIDTH 333 0
DWIDTH 8 0
BBX 5 5 2 9
BITMAP
1900
5640
8180
6700
1400
ENDCHAR
STARTCHAR ogonek
ENCODING 731
SWIDTH 254 0
DWIDTH 6 0
BBX 5 5 0 -4
BITMAP
0A00
3800
7000
3940
0680
ENDCHAR
STARTCHAR tilde
ENCODING 732
SWIDTH 402 0
DWIDTH 10 0
BBX 9 4 0 9
BITMAP
2E4180
71EA00
601800
100000
ENDCHAR
STARTCHAR hungarumlaut
ENCODING 733
SWIDTH 264 0
DWIDTH 6 0
BBX 6 4 0 10
BITMAP
0400
2D70
75D0
1140
ENDCHAR
STARTCHAR Wgrave
ENCODING 7808
SWIDTH 703 0
DWIDTH 17 0
BBX 17 18 0 0
BITMAP
0001000000
0002D00000
0000B40000
0000100000
0000000000
0000000000
5000001400
A000002C00
A000001D00
A000000E00
A001000B00
B007000700
7007400340
7407800340
340BC00340
2C2DB00B00
0FF42EBD00
06900BE000
ENDCHAR
STARTCHAR wgrave
ENCODING 7809
SWIDTH 656 0
DWIDTH 16 0
BBX 15 13 0 0
BITMAP
00078000
0001E000
00005000
20000000
70000050
A0014070
A0028028
A002801C
A002C01C
7003D01C
280BE03C
0EBD7EF4
02E40A90
ENDCHAR
STARTCHAR Wacute
ENCODING 7810
SWIDTH 703 0
DWIDTH 17 0
BBX 17 17 0 0
BITMAP
0000A00000
0002C00000
000A000000
0004000000
0000000000
5000001400
A000002C00
A000001D00
A000000E00
A001000B00
B007000700
7007400340
7407800340
340BC00340
2C2DB00B00
0FF42EBD00
06900BE000
ENDCHAR
STARTCHAR wacute
ENCODING 7811
SWIDTH 656 0
DWIDTH 16 0
BBX 15 15 0 0
BITMAP
0000A000
00038000
000A0000
00040000
00000000
20000000
70000050
A0014070
A0028028
A002801C
A002C01C
7003D01C
280BE03C
0EBD7EF4
02E40A90
ENDCHAR
STARTCHAR Wdieresis
ENCODING 7812
SWIDTH 703 0
DWIDTH 17 0
BBX 17 17 0 0
BITMAP
0008180000
002E2D0000
0019180000
0000000000
0000000000
5000001400
A000002C00
A000001D00
A000000E00
A001000B00
B007000700
7007400340
7407800340
340BC00340
2C2DB00B00
0FF42EBD00
06900BE000
ENDCHAR
STARTCHAR wdieresis
ENCODING 7813
SWIDTH 656 0
DWIDTH 16 0
BBX 15 13 0 0
BITMAP
00141400
003C7C00
00242400
20000000
70000050
A0014070
A0028028
A002801C
A002C01C
7003D01C
280BE03C
0EBD7EF4
02E40A90
ENDCHAR
STARTCHAR Ygrave
ENCODING 7922
SWIDTH 403 0
DWIDTH 10 0
BBX 10 21 0 -1
BITMAP
010000
02D000
00B400
001400
400000
A00040
7000D0
3801C0
1E02C0
079380
00BF40
001E00
000D00
001C00
002800
003400
003400
007000
007000
007000
001000
ENDCHAR
STARTCHAR ygrave
ENCODING 7923
SWIDTH 487 0
DWIDTH 12 0
BBX 12 25 0 -12
BITMAP
007800
001E00
000510
900020
A00024
A00028
700028
34002C
28002C
1C007C
0A01FC
02EF4D
006409
000009
000009
00000D
00000D
00000C
00001C
10001C
340028
2D0034
0B80B0
01FBD0
001A40
ENDCHAR
STARTCHAR endash
ENCODING 8211
SWIDTH 287 0
DWIDTH 7 0
BBX 7 2 0 6
BITMAP
1AA0
BEB4
ENDCHAR
STARTCHAR emdash
ENCODING 8212
SWIDTH 512 0
DWIDTH 12 0
BBX 12 3 0 5
BITMAP
055AA8
7FFEAD
100000
ENDCHAR
STARTCHAR quoteleft
ENCODING 8216
SWIDTH 102 0
DWIDTH 2 0
BBX 2 7 0 11
BITMAP
40
A0
A0
70
70
30
10
ENDCHAR
STARTCHAR quoteright
ENCODING 8217
SWIDTH 102 0
DWIDTH 2 0
BBX 2 7 0 11
BITMAP
40
A0
A0
70
70
30
10
ENDCHAR
STARTCHAR quotesinglbase
ENCODING 8218
SWIDTH 102 0
DWIDTH 2 0
BBX 2 6 0 -1
BITMAP
50
70
70
70
30
20
ENDCHAR
STARTCHAR quotedblleft
ENCODING 8220
SWIDTH 234 0
DWIDTH 6 0
BBX 5 7 0 12
BITMAP
4240
9280
A280
72C0
71C0
35C0
15C0
ENDCHAR
STARTCHAR quotedblright
ENCODING 8221
SWIDTH 234 0
DWIDTH 6 0
BBX 5 7 0 12
BITMAP
4240
9280
A280
72C0
71C0
35C0
15C0
ENDCHAR
STARTCHAR quotedblbase
ENCODING 8222
SWIDTH 341 0
DWIDTH 8 0
BBX 5 8 2 -3
BITMAP
0100
4300
C300
D340
D340
A340
7340
1240
ENDCHAR
STARTCHAR dagger
ENCODING 8224
SWIDTH 375 0
DWIDTH 9 0
BBX 9 16 0 0
BITMAP
010000
030000
024000
018000
01C000
05D500
3FFF40
559100
009000
00A000
00A000
00A000
00A000
00A000
00A000
006000
ENDCHAR
STARTCHAR daggerdbl
ENCODING 8225
SWIDTH 375 0
DWIDTH 9 0
BBX 12 18 -2 0
BITMAP
002400
003400
002800
002800
001C00
000C00
156E54
7FFFAF
000901
001A50
3FFFFD
000A00
000A00
000A00
000A00
000A00
000A00
000600
ENDCHAR
STARTCHAR bullet
ENCODING 8226
SWIDTH 341 0
DWIDTH 8 0
BBX 5 5 2 4
BITMAP
0400
2F00
7F80
7F80
2E00
ENDCHAR
STARTCHAR ellipsis
ENCODING 8230
SWIDTH 612 0
DWIDTH 15 0
BBX 13 5 1 0
BITMAP
10040100
782E0B80
FD3F0FC0
BC3F0FC0
741D0740
ENDCHAR
STARTCHAR guilsinglleft
ENCODING 8249
SWIDTH 487 0
DWIDTH 12 0
BBX 11 10 0 0
BITMAP
000018
0001E4
000B80
007D00
01E000
0B4000
380000
BE9400
1AFFD0
0005B0
ENDCHAR
STARTCHAR guilsinglright
ENCODING 8250
SWIDTH 403 0
DWIDTH 10 0
BBX 10 11 0 0
BITMAP
780000
2E4000
06F940
001BD0
0002D0
000780
002E00
01B400
078000
2E0000
740000
ENDCHAR
STARTCHAR fraction
ENCODING 8260
SWIDTH 309 0
DWIDTH 7 0
BBX 7 18 0 0
BITMAP
0008
001C
0018
0024
0034
0070
00A0
00D0
02C0
0380
0740
0B00
0E00
1C00
2800
7400
B000
9000
ENDCHAR
STARTCHAR Euro
ENCODING 8364
SWIDTH 741 0
DWIDTH 18 0
BBX 17 17 0 0
BITMAP
0000006800
000007EA00
00001D0100
0000A00000
0016FE4000
7FFFAED000
A56D000000
0024000000
0030154000
01BFFE8000
BFE5000000
0090000000
00A0000000
0060000000
0034000540
001E5AFF80
0006FE9400
ENDCHAR
STARTCHAR trademark
ENCODING 8482
SWIDTH 1116 0
DWIDTH 27 0
BBX 26 15 0 0
BITMAP
AAA95505000080
5ABFFFFF4001D0
0002806BC002C0
00018002E007C0
00018001F81FC0
0001C0029FFAC0
0001C0028151C0
0001C0028001C0
0000D0028000D0
0000D0028000D0
0000E0028000E0
0000A0028000A0
0000B0028000B0
000074028000B0
00003800000070
ENDCHAR
STARTCHAR minus
ENCODING 8722
SWIDTH 287 0
DWIDTH 7 0
BBX 7 2 0 6
BITMAP
1AA0
BEB4
ENDCHAR
STARTCHAR commaaccent
ENCODING 63171
SWIDTH 375 0
DWIDTH 9 0
BBX 3 6 2 -8
BITMAP
10
78
28
28
74
10
ENDCHAR
STARTCHAR fi
ENCODING 64257
SWIDTH 551 0
DWIDTH 13 0
BBX 11 18 0 -1
BITMAP
006E40
01E6E0
028078
070318
060240
090000
0A0000
0A00C0
0A00D0
6FA9D0
EBEED0
0380E0
01C0E0
00E0B0
0074B0
003C74
001D74
000010
ENDCHAR
STARTCHAR fl
ENCODING 64258
SWIDTH 723 0
DWIDTH 17 0
BBX 11 17 0 0
BITMAP
006E40
01E6E0
028078
070058
0601C0
0901C0
0A01C0
0A01C0
0A01C0
6FAAC0
EBEFD0
0381D0
01C1D0
00E1D0
0075C0
003DC0
001DC0
ENDCHAR
STARTCHAR .notdef
ENCODING -1
SWIDTH 375 0
DWIDTH 9 0
BBX 1 1 0 0
BITMAP
00
ENDCHAR
STARTCHAR .null
ENCODING -1
SWIDTH 0 0
DWIDTH 0 0
BBX 1 1 0 0
BITMAP
00
ENDCHAR
STARTCHAR nonmarkingreturn
ENCODING -1
SWIDTH 375 0
DWIDTH 9 0
BBX 1 1 0 0
BITMAP
00
ENDCHAR
ENDFONT
